<svg width="36" height="33" viewBox="0 0 29 27" fill="none" xmlns="http://www.w3.org/2000/svg">
<path d="M27.4897 21.3836C28.257 19.9493 28.6628 18.3496 28.6721 16.723C28.6813 15.0964 28.2938 13.4922 27.5429 12.0492C26.7921 10.6063 25.7007 9.36824 24.3633 8.44241C23.0259 7.51658 21.4829 6.93091 19.868 6.73615C19.3374 5.49476 18.561 4.37365 17.5855 3.44039C16.6101 2.50713 15.4557 1.78104 14.1921 1.30589C12.9285 0.830735 11.5817 0.616357 10.233 0.675674C8.88432 0.734991 7.56159 1.06678 6.34456 1.65103C5.12753 2.23528 4.04139 3.05991 3.15162 4.07521C2.26184 5.0905 1.58686 6.27545 1.16734 7.55862C0.747822 8.84179 0.592461 10.1966 0.710618 11.5414C0.828776 12.8863 1.21801 14.1933 1.85485 15.3836L1.08178 18.0898C0.995997 18.3899 0.992023 18.7075 1.07027 19.0096C1.14852 19.3117 1.30614 19.5874 1.5268 19.8081C1.74746 20.0288 2.02313 20.1865 2.32524 20.2648C2.62735 20.3431 2.9449 20.3392 3.24499 20.2535L5.95153 19.4802C7.04677 20.0665 8.24182 20.4431 9.47528 20.5907C10.0206 21.8663 10.8252 23.0145 11.838 23.9625C12.8508 24.9105 14.0497 25.6375 15.3586 26.0973C16.6674 26.5571 18.0576 26.7396 19.4408 26.6334C20.8239 26.5272 22.1699 26.1345 23.3932 25.4802L26.0996 26.2535C26.3997 26.3392 26.7172 26.3431 27.0193 26.2648C27.3214 26.1865 27.5971 26.0289 27.8177 25.8082C28.0384 25.5875 28.196 25.3118 28.2743 25.0097C28.3526 24.7076 28.3487 24.3901 28.2629 24.09L27.4897 21.3836ZM25.5538 20.7451C25.4842 20.8623 25.4392 20.9924 25.4216 21.1275C25.4041 21.2627 25.4143 21.4 25.4518 21.531L26.2163 24.2068L23.5405 23.4423C23.4095 23.4049 23.2722 23.3947 23.1371 23.4122C23.002 23.4298 22.8719 23.4747 22.7548 23.5444C21.8396 24.0868 20.8254 24.4413 19.7716 24.5872C18.7178 24.7331 17.6455 24.6674 16.6174 24.3941C15.5892 24.1207 14.6259 23.6452 13.7837 22.9952C12.9415 22.3452 12.2373 21.5339 11.7123 20.6086C13.082 20.4669 14.4077 20.0434 15.606 19.3648C16.8043 18.6862 17.8493 17.7672 18.6754 16.6654C19.5015 15.5636 20.0908 14.3029 20.4064 12.9625C20.722 11.6221 20.757 10.2309 20.5092 8.87626C21.731 9.16487 22.8678 9.73688 23.8276 10.5461C24.7875 11.3552 25.5435 12.3789 26.0346 13.5343C26.5257 14.6897 26.738 15.9444 26.6545 17.1971C26.571 18.4497 26.1939 19.6651 25.5538 20.7451V20.7451Z" fill="white"/>
</svg>
