<svg width="38" height="34" viewBox="0 0 29 23" fill="none" xmlns="http://www.w3.org/2000/svg">
<path fill-rule="evenodd" clip-rule="evenodd" d="M9.41722 12.7668C8.82941 11.547 8.5 10.1793 8.5 8.73457C8.5 7.98877 8.58779 7.26347 8.7536 6.56845H7.43299C6.36561 6.56845 5.50109 5.70165 5.50109 4.63147C5.50109 3.56129 6.36561 2.69449 7.43299 2.69449C8.10111 2.69449 8.64787 2.77171 9.75468 4.06646C10.1551 3.37783 10.6414 2.74531 11.1989 2.18356C10.0421 0.945043 8.93785 0.370117 7.43782 0.370117C5.09539 0.370117 3.18764 2.28288 3.18764 4.63147C3.18764 5.33363 3.37117 5.98252 3.67544 6.56845H1.54552C0.690654 6.56845 0 7.26092 0 8.11804V11.992C0 12.4181 0.347742 12.7668 0.77276 12.7668H9.41722ZM17.8 18.0346C19.46 18.0346 21.0184 17.5997 22.3675 16.8376L23.1828 17.6529V20.5147C23.1828 21.3718 22.4921 22.0643 21.6373 22.0643H13.9097V17.1843C15.0933 17.7301 16.4111 18.0346 17.8 18.0346ZM10.3607 14.3164C10.5061 14.5099 10.6589 14.6975 10.8186 14.8789V22.0643H3.09104C2.23617 22.0643 1.54552 21.3718 1.54552 20.5147V14.3164H10.3607ZM17.8 3C14.5967 3 12 5.59675 12 8.8C12 12.0033 14.5967 14.6 17.8 14.6C21.0033 14.6 23.6 12.0033 23.6 8.8C23.6 5.59675 21.0033 3 17.8 3ZM10 8.8C10 4.49218 13.4922 1 17.8 1C22.1078 1 25.6 4.49218 25.6 8.8C25.6 10.5934 24.9947 12.2455 23.9773 13.5631L28.7071 18.2929C29.0976 18.6834 29.0976 19.3166 28.7071 19.7071C28.3166 20.0976 27.6834 20.0976 27.2929 19.7071L22.5631 14.9773C21.2455 15.9947 19.5934 16.6 17.8 16.6C13.4922 16.6 10 13.1078 10 8.8Z" fill="#011638"/>
</svg>
