<svg width="48" height="48" viewBox="0 0 48 48" fill="none" xmlns="http://www.w3.org/2000/svg">
<rect width="48" height="48" rx="24" fill="#011638"/>
<path d="M35.6875 17.625H12.3125C11.7257 17.625 11.25 18.1007 11.25 18.6875V22.9375C11.25 23.5243 11.7257 24 12.3125 24H35.6875C36.2743 24 36.75 23.5243 36.75 22.9375V18.6875C36.75 18.1007 36.2743 17.625 35.6875 17.625Z" stroke="white" stroke-width="2" stroke-linecap="round" stroke-linejoin="round"/>
<path d="M34.625 24V33.5625C34.625 33.8443 34.5131 34.1145 34.3138 34.3138C34.1145 34.5131 33.8443 34.625 33.5625 34.625H14.4375C14.1557 34.625 13.8855 34.5131 13.6862 34.3138C13.4869 34.1145 13.375 33.8443 13.375 33.5625V24" stroke="white" stroke-width="2" stroke-linecap="round" stroke-linejoin="round"/>
<path d="M24 17.625V34.625" stroke="white" stroke-width="2" stroke-linecap="round" stroke-linejoin="round"/>
<path d="M30.0104 16.1224C28.5078 17.625 24 17.625 24 17.625C24 17.625 24 13.1172 25.5026 11.6146C26.1005 11.0174 26.9111 10.6821 27.7561 10.6823C28.6012 10.6826 29.4116 11.0184 30.0091 11.6159C30.6067 12.2135 30.9425 13.0238 30.9427 13.8689C30.943 14.714 30.6076 15.5245 30.0104 16.1224V16.1224Z" stroke="white" stroke-width="2" stroke-linecap="round" stroke-linejoin="round"/>
<path d="M17.9894 16.1224C19.492 17.625 23.9999 17.625 23.9999 17.625C23.9999 17.625 23.9999 13.1172 22.4972 11.6146C21.8994 11.0174 21.0888 10.6821 20.2437 10.6823C19.3987 10.6826 18.5883 11.0184 17.9907 11.6159C17.3932 12.2135 17.0574 13.0238 17.0571 13.8689C17.0569 14.714 17.3922 15.5245 17.9894 16.1224V16.1224Z" stroke="white" stroke-width="2" stroke-linecap="round" stroke-linejoin="round"/>
</svg>
