<svg width="33" height="33" viewBox="0 0 24 25" fill="none" xmlns="http://www.w3.org/2000/svg">
<path d="M23.3455 9.96252L13.3446 0.870537C12.9773 0.534174 12.4973 0.347622 11.9992 0.347656C11.5011 0.34769 11.0211 0.534307 10.6538 0.87072L0.654675 9.96246C0.448667 10.1501 0.284045 10.3786 0.171323 10.6334C0.0586007 10.8882 0.000255185 11.1637 1.2093e-05 11.4423V22.9542C-0.00572308 23.4568 0.172591 23.9442 0.501344 24.3244C0.688634 24.5373 0.919264 24.7077 1.17778 24.8242C1.43629 24.9407 1.71672 25.0006 2.00026 24.9999H7.99562C8.26083 24.9999 8.51519 24.8945 8.70272 24.707C8.89026 24.5194 8.99562 24.2651 8.99562 23.9999V17.999C8.99562 17.7337 9.10097 17.4794 9.28851 17.2918C9.47605 17.1043 9.7304 16.999 9.99562 16.999H13.9956C14.2608 16.999 14.5152 17.1043 14.7027 17.2918C14.8903 17.4794 14.9956 17.7337 14.9956 17.999V23.9999C14.9956 24.2651 15.101 24.5194 15.2885 24.707C15.476 24.8945 15.7304 24.9999 15.9956 24.9999H22.0028C22.3314 25.0042 22.6556 24.9243 22.9445 24.7679C23.2635 24.5957 23.53 24.3405 23.7158 24.0293C23.9016 23.718 23.9998 23.3623 24 22.9999V11.4424C23.9997 11.1638 23.9414 10.8883 23.8287 10.6335C23.716 10.3787 23.5514 10.1502 23.3455 9.96252V9.96252Z" fill="white"/>
</svg>
