<svg width="1083" height="391" viewBox="0 0 1083 391" fill="none" xmlns="http://www.w3.org/2000/svg">
<line x1="120" y1="161" x2="978" y2="161" stroke="#F1DABF" stroke-width="4" stroke-linecap="round" stroke-dasharray="8 8"/>
<rect x="902.687" y="242.195" width="165.061" height="173.837" transform="rotate(-90 902.687 242.195)" fill="#8994D2"/>
<rect x="902.38" y="242.072" width="165.058" height="174.243" transform="rotate(-90 902.38 242.072)" fill="#C88B6A"/>
<g filter="url(#filter0_d)">
<rect x="1076.3" y="110.204" width="173.848" height="33.0123" transform="rotate(-180 1076.3 110.204)" fill="#C88B6A"/>
</g>
<rect x="1083" y="110.204" width="187" height="33.0123" transform="rotate(-180 1083 110.204)" fill="#C88B6A"/>
<path fill-rule="evenodd" clip-rule="evenodd" d="M983.837 48.1746C980.032 31.4014 979.123 27.3941 972.356 19.8979C962.435 8.90848 945.484 8.04211 934.495 17.9628C923.505 27.8835 922.639 44.8345 932.56 55.8239C939.549 63.5661 943.19 64.791 960.913 70.7529C968.346 73.2534 978.256 76.5871 991.929 81.5843C988.012 66.5791 985.61 55.9908 983.837 48.1746ZM943.27 47.8189C948.23 53.3136 956.706 53.7468 962.2 48.7865C967.695 43.8261 968.128 35.3506 963.168 29.8559C958.208 24.3612 949.732 23.9281 944.237 28.8884C938.743 33.8487 938.31 42.3242 943.27 47.8189Z" fill="#8994D2"/>
<rect x="974.979" y="242.195" width="165.061" height="29.2514" transform="rotate(-90 974.979 242.195)" fill="#011638"/>
<path d="M999.643 45.6801C1008.07 33.958 1032.83 30.8021 1032.83 30.8021C1032.83 30.8021 1039.45 48.9706 1027.62 62.9932C1015.8 77.0158 989.302 79.2492 989.302 79.2492C989.302 79.2492 991.219 57.4022 999.643 45.6801Z" fill="#011638"/>
<path d="M19.5152 303.082V313H17.4632V311.83C17.1392 312.238 16.7132 312.562 16.1852 312.802C15.6692 313.03 15.1172 313.144 14.5292 313.144C13.7492 313.144 13.0472 312.982 12.4232 312.658C11.8112 312.334 11.3252 311.854 10.9652 311.218C10.6172 310.582 10.4432 309.814 10.4432 308.914V303.082H12.4772V308.608C12.4772 309.496 12.6992 310.18 13.1432 310.66C13.5872 311.128 14.1932 311.362 14.9612 311.362C15.7292 311.362 16.3352 311.128 16.7792 310.66C17.2352 310.18 17.4632 309.496 17.4632 308.608V303.082H19.5152ZM24.2746 304.54C24.6226 304.084 25.0966 303.7 25.6966 303.388C26.2966 303.076 26.9746 302.92 27.7306 302.92C28.5946 302.92 29.3806 303.136 30.0886 303.568C30.8086 303.988 31.3726 304.582 31.7806 305.35C32.1886 306.118 32.3926 307 32.3926 307.996C32.3926 308.992 32.1886 309.886 31.7806 310.678C31.3726 311.458 30.8086 312.07 30.0886 312.514C29.3806 312.946 28.5946 313.162 27.7306 313.162C26.9746 313.162 26.3026 313.012 25.7146 312.712C25.1266 312.4 24.6466 312.016 24.2746 311.56V317.716H22.2226V303.082H24.2746V304.54ZM30.3046 307.996C30.3046 307.312 30.1606 306.724 29.8726 306.232C29.5966 305.728 29.2246 305.35 28.7566 305.098C28.3006 304.834 27.8086 304.702 27.2806 304.702C26.7646 304.702 26.2726 304.834 25.8046 305.098C25.3486 305.362 24.9766 305.746 24.6886 306.25C24.4126 306.754 24.2746 307.348 24.2746 308.032C24.2746 308.716 24.4126 309.316 24.6886 309.832C24.9766 310.336 25.3486 310.72 25.8046 310.984C26.2726 311.248 26.7646 311.38 27.2806 311.38C27.8086 311.38 28.3006 311.248 28.7566 310.984C29.2246 310.708 29.5966 310.312 29.8726 309.796C30.1606 309.28 30.3046 308.68 30.3046 307.996ZM36.4738 299.68V313H34.4218V299.68H36.4738ZM43.4699 313.162C42.5339 313.162 41.6879 312.952 40.9319 312.532C40.1759 312.1 39.5819 311.5 39.1499 310.732C38.7179 309.952 38.5019 309.052 38.5019 308.032C38.5019 307.024 38.7239 306.13 39.1679 305.35C39.6119 304.57 40.2179 303.97 40.9859 303.55C41.7539 303.13 42.6119 302.92 43.5599 302.92C44.5079 302.92 45.3659 303.13 46.1339 303.55C46.9019 303.97 47.5079 304.57 47.9519 305.35C48.3959 306.13 48.6179 307.024 48.6179 308.032C48.6179 309.04 48.3899 309.934 47.9339 310.714C47.4779 311.494 46.8539 312.1 46.0619 312.532C45.2819 312.952 44.4179 313.162 43.4699 313.162ZM43.4699 311.38C43.9979 311.38 44.4899 311.254 44.9459 311.002C45.4139 310.75 45.7919 310.372 46.0799 309.868C46.3679 309.364 46.5119 308.752 46.5119 308.032C46.5119 307.312 46.3739 306.706 46.0979 306.214C45.8219 305.71 45.4559 305.332 44.9999 305.08C44.5439 304.828 44.0519 304.702 43.5239 304.702C42.9959 304.702 42.5039 304.828 42.0479 305.08C41.6039 305.332 41.2499 305.71 40.9859 306.214C40.7219 306.706 40.5899 307.312 40.5899 308.032C40.5899 309.1 40.8599 309.928 41.3999 310.516C41.9519 311.092 42.6419 311.38 43.4699 311.38ZM49.9624 307.996C49.9624 307 50.1664 306.118 50.5744 305.35C50.9944 304.582 51.5584 303.988 52.2664 303.568C52.9864 303.136 53.7784 302.92 54.6424 302.92C55.4224 302.92 56.1004 303.076 56.6764 303.388C57.2644 303.688 57.7324 304.066 58.0804 304.522V303.082H60.1504V313H58.0804V311.524C57.7324 311.992 57.2584 312.382 56.6584 312.694C56.0584 313.006 55.3744 313.162 54.6064 313.162C53.7544 313.162 52.9744 312.946 52.2664 312.514C51.5584 312.07 50.9944 311.458 50.5744 310.678C50.1664 309.886 49.9624 308.992 49.9624 307.996ZM58.0804 308.032C58.0804 307.348 57.9364 306.754 57.6484 306.25C57.3724 305.746 57.0064 305.362 56.5504 305.098C56.0944 304.834 55.6024 304.702 55.0744 304.702C54.5464 304.702 54.0544 304.834 53.5984 305.098C53.1424 305.35 52.7704 305.728 52.4824 306.232C52.2064 306.724 52.0684 307.312 52.0684 307.996C52.0684 308.68 52.2064 309.28 52.4824 309.796C52.7704 310.312 53.1424 310.708 53.5984 310.984C54.0664 311.248 54.5584 311.38 55.0744 311.38C55.6024 311.38 56.0944 311.248 56.5504 310.984C57.0064 310.72 57.3724 310.336 57.6484 309.832C57.9364 309.316 58.0804 308.716 58.0804 308.032ZM62.1617 307.996C62.1617 307 62.3657 306.118 62.7737 305.35C63.1937 304.582 63.7577 303.988 64.4657 303.568C65.1857 303.136 65.9837 302.92 66.8597 302.92C67.5077 302.92 68.1437 303.064 68.7677 303.352C69.4037 303.628 69.9077 304 70.2797 304.468V299.68H72.3497V313H70.2797V311.506C69.9437 311.986 69.4757 312.382 68.8757 312.694C68.2877 313.006 67.6097 313.162 66.8417 313.162C65.9777 313.162 65.1857 312.946 64.4657 312.514C63.7577 312.07 63.1937 311.458 62.7737 310.678C62.3657 309.886 62.1617 308.992 62.1617 307.996ZM70.2797 308.032C70.2797 307.348 70.1357 306.754 69.8477 306.25C69.5717 305.746 69.2057 305.362 68.7497 305.098C68.2937 304.834 67.8017 304.702 67.2737 304.702C66.7457 304.702 66.2537 304.834 65.7977 305.098C65.3417 305.35 64.9697 305.728 64.6817 306.232C64.4057 306.724 64.2677 307.312 64.2677 307.996C64.2677 308.68 64.4057 309.28 64.6817 309.796C64.9697 310.312 65.3417 310.708 65.7977 310.984C66.2657 311.248 66.7577 311.38 67.2737 311.38C67.8017 311.38 68.2937 311.248 68.7497 310.984C69.2057 310.72 69.5717 310.336 69.8477 309.832C70.1357 309.316 70.2797 308.716 70.2797 308.032ZM88.6487 303.082L82.5647 317.662H80.4407L82.4567 312.838L78.5507 303.082H80.8367L83.6267 310.642L86.5247 303.082H88.6487ZM94.4992 313.162C93.5632 313.162 92.7172 312.952 91.9612 312.532C91.2052 312.1 90.6112 311.5 90.1792 310.732C89.7472 309.952 89.5312 309.052 89.5312 308.032C89.5312 307.024 89.7532 306.13 90.1972 305.35C90.6412 304.57 91.2472 303.97 92.0152 303.55C92.7832 303.13 93.6412 302.92 94.5892 302.92C95.5372 302.92 96.3952 303.13 97.1632 303.55C97.9312 303.97 98.5372 304.57 98.9812 305.35C99.4252 306.13 99.6472 307.024 99.6472 308.032C99.6472 309.04 99.4192 309.934 98.9632 310.714C98.5072 311.494 97.8832 312.1 97.0912 312.532C96.3112 312.952 95.4472 313.162 94.4992 313.162ZM94.4992 311.38C95.0272 311.38 95.5192 311.254 95.9752 311.002C96.4432 310.75 96.8212 310.372 97.1092 309.868C97.3972 309.364 97.5412 308.752 97.5412 308.032C97.5412 307.312 97.4032 306.706 97.1272 306.214C96.8512 305.71 96.4852 305.332 96.0292 305.08C95.5732 304.828 95.0812 304.702 94.5532 304.702C94.0252 304.702 93.5332 304.828 93.0772 305.08C92.6332 305.332 92.2792 305.71 92.0152 306.214C91.7512 306.706 91.6192 307.312 91.6192 308.032C91.6192 309.1 91.8892 309.928 92.4292 310.516C92.9812 311.092 93.6712 311.38 94.4992 311.38ZM110.658 303.082V313H108.606V311.83C108.282 312.238 107.856 312.562 107.328 312.802C106.812 313.03 106.26 313.144 105.672 313.144C104.892 313.144 104.19 312.982 103.566 312.658C102.954 312.334 102.468 311.854 102.108 311.218C101.76 310.582 101.586 309.814 101.586 308.914V303.082H103.62V308.608C103.62 309.496 103.842 310.18 104.286 310.66C104.73 311.128 105.336 311.362 106.104 311.362C106.872 311.362 107.478 311.128 107.922 310.66C108.378 310.18 108.606 309.496 108.606 308.608V303.082H110.658ZM115.417 304.522C115.717 304.018 116.113 303.628 116.605 303.352C117.109 303.064 117.703 302.92 118.387 302.92V305.044H117.865C117.061 305.044 116.449 305.248 116.029 305.656C115.621 306.064 115.417 306.772 115.417 307.78V313H113.365V303.082H115.417V304.522ZM32.7912 326.522C33.0912 326.018 33.4872 325.628 33.9792 325.352C34.4832 325.064 35.0772 324.92 35.7612 324.92V327.044H35.2392C34.4352 327.044 33.8232 327.248 33.4032 327.656C32.9952 328.064 32.7912 328.772 32.7912 329.78V335H30.7392V325.082H32.7912V326.522ZM46.7374 329.798C46.7374 330.17 46.7134 330.506 46.6654 330.806H39.0874C39.1474 331.598 39.4414 332.234 39.9694 332.714C40.4974 333.194 41.1454 333.434 41.9134 333.434C43.0174 333.434 43.7974 332.972 44.2534 332.048H46.4674C46.1674 332.96 45.6214 333.71 44.8294 334.298C44.0494 334.874 43.0774 335.162 41.9134 335.162C40.9654 335.162 40.1134 334.952 39.3574 334.532C38.6134 334.1 38.0254 333.5 37.5934 332.732C37.1734 331.952 36.9634 331.052 36.9634 330.032C36.9634 329.012 37.1674 328.118 37.5754 327.35C37.9954 326.57 38.5774 325.97 39.3214 325.55C40.0774 325.13 40.9414 324.92 41.9134 324.92C42.8494 324.92 43.6834 325.124 44.4154 325.532C45.1474 325.94 45.7174 326.516 46.1254 327.26C46.5334 327.992 46.7374 328.838 46.7374 329.798ZM44.5954 329.15C44.5834 328.394 44.3134 327.788 43.7854 327.332C43.2574 326.876 42.6034 326.648 41.8234 326.648C41.1154 326.648 40.5094 326.876 40.0054 327.332C39.5014 327.776 39.2014 328.382 39.1054 329.15H44.5954ZM48.0728 329.996C48.0728 329 48.2768 328.118 48.6848 327.35C49.1048 326.582 49.6688 325.988 50.3768 325.568C51.0968 325.136 51.8948 324.92 52.7708 324.92C53.5388 324.92 54.2168 325.076 54.8048 325.388C55.4048 325.7 55.8668 326.078 56.1908 326.522V325.082H58.2608V339.716H56.1908V333.56C55.8668 334.004 55.3988 334.382 54.7868 334.694C54.1748 335.006 53.4788 335.162 52.6988 335.162C51.8468 335.162 51.0668 334.946 50.3588 334.514C49.6628 334.07 49.1048 333.458 48.6848 332.678C48.2768 331.886 48.0728 330.992 48.0728 329.996ZM56.1908 330.032C56.1908 329.348 56.0468 328.754 55.7588 328.25C55.4828 327.746 55.1168 327.362 54.6608 327.098C54.2048 326.834 53.7128 326.702 53.1848 326.702C52.6568 326.702 52.1648 326.834 51.7088 327.098C51.2528 327.35 50.8808 327.728 50.5928 328.232C50.3168 328.724 50.1788 329.312 50.1788 329.996C50.1788 330.68 50.3168 331.28 50.5928 331.796C50.8808 332.312 51.2528 332.708 51.7088 332.984C52.1768 333.248 52.6688 333.38 53.1848 333.38C53.7128 333.38 54.2048 333.248 54.6608 332.984C55.1168 332.72 55.4828 332.336 55.7588 331.832C56.0468 331.316 56.1908 330.716 56.1908 330.032ZM69.938 325.082V335H67.886V333.83C67.562 334.238 67.136 334.562 66.608 334.802C66.092 335.03 65.54 335.144 64.952 335.144C64.172 335.144 63.47 334.982 62.846 334.658C62.234 334.334 61.748 333.854 61.388 333.218C61.04 332.582 60.866 331.814 60.866 330.914V325.082H62.9V330.608C62.9 331.496 63.122 332.18 63.566 332.66C64.01 333.128 64.616 333.362 65.384 333.362C66.152 333.362 66.758 333.128 67.202 332.66C67.658 332.18 67.886 331.496 67.886 330.608V325.082H69.938ZM81.7355 329.798C81.7355 330.17 81.7115 330.506 81.6635 330.806H74.0855C74.1455 331.598 74.4395 332.234 74.9675 332.714C75.4955 333.194 76.1435 333.434 76.9115 333.434C78.0155 333.434 78.7955 332.972 79.2515 332.048H81.4655C81.1655 332.96 80.6195 333.71 79.8275 334.298C79.0475 334.874 78.0755 335.162 76.9115 335.162C75.9635 335.162 75.1115 334.952 74.3555 334.532C73.6115 334.1 73.0235 333.5 72.5915 332.732C72.1715 331.952 71.9615 331.052 71.9615 330.032C71.9615 329.012 72.1655 328.118 72.5735 327.35C72.9935 326.57 73.5755 325.97 74.3195 325.55C75.0755 325.13 75.9395 324.92 76.9115 324.92C77.8475 324.92 78.6815 325.124 79.4135 325.532C80.1455 325.94 80.7155 326.516 81.1235 327.26C81.5315 327.992 81.7355 328.838 81.7355 329.798ZM79.5935 329.15C79.5815 328.394 79.3115 327.788 78.7835 327.332C78.2555 326.876 77.6015 326.648 76.8215 326.648C76.1135 326.648 75.5075 326.876 75.0035 327.332C74.4995 327.776 74.1995 328.382 74.1035 329.15H79.5935ZM87.3548 335.162C86.5748 335.162 85.8728 335.024 85.2488 334.748C84.6368 334.46 84.1508 334.076 83.7908 333.596C83.4308 333.104 83.2388 332.558 83.2148 331.958H85.3388C85.3748 332.378 85.5728 332.732 85.9328 333.02C86.3048 333.296 86.7668 333.434 87.3188 333.434C87.8948 333.434 88.3388 333.326 88.6508 333.11C88.9748 332.882 89.1368 332.594 89.1368 332.246C89.1368 331.874 88.9568 331.598 88.5968 331.418C88.2488 331.238 87.6908 331.04 86.9228 330.824C86.1788 330.62 85.5728 330.422 85.1048 330.23C84.6368 330.038 84.2288 329.744 83.8808 329.348C83.5448 328.952 83.3768 328.43 83.3768 327.782C83.3768 327.254 83.5328 326.774 83.8448 326.342C84.1568 325.898 84.6008 325.55 85.1768 325.298C85.7648 325.046 86.4368 324.92 87.1928 324.92C88.3208 324.92 89.2268 325.208 89.9108 325.784C90.6068 326.348 90.9788 327.122 91.0268 328.106H88.9748C88.9388 327.662 88.7588 327.308 88.4348 327.044C88.1108 326.78 87.6728 326.648 87.1208 326.648C86.5808 326.648 86.1668 326.75 85.8788 326.954C85.5908 327.158 85.4468 327.428 85.4468 327.764C85.4468 328.028 85.5428 328.25 85.7348 328.43C85.9268 328.61 86.1608 328.754 86.4368 328.862C86.7128 328.958 87.1208 329.084 87.6608 329.24C88.3808 329.432 88.9688 329.63 89.4248 329.834C89.8928 330.026 90.2948 330.314 90.6308 330.698C90.9668 331.082 91.1408 331.592 91.1528 332.228C91.1528 332.792 90.9968 333.296 90.6848 333.74C90.3728 334.184 89.9288 334.532 89.3528 334.784C88.7888 335.036 88.1228 335.162 87.3548 335.162ZM95.7641 326.756V332.246C95.7641 332.618 95.8481 332.888 96.0161 333.056C96.1961 333.212 96.4961 333.29 96.9161 333.29H98.1761V335H96.5561C95.6321 335 94.9241 334.784 94.4321 334.352C93.9401 333.92 93.6941 333.218 93.6941 332.246V326.756H92.5241V325.082H93.6941V322.616H95.7641V325.082H98.1761V326.756H95.7641Z" fill="#011638"/>
<path d="M259.154 303.082L256.076 313H253.916L251.918 305.674L249.92 313H247.76L244.664 303.082H246.752L248.822 311.056L250.928 303.082H253.07L255.086 311.02L257.138 303.082H259.154ZM260.004 307.996C260.004 307 260.208 306.118 260.616 305.35C261.036 304.582 261.6 303.988 262.308 303.568C263.028 303.136 263.82 302.92 264.684 302.92C265.464 302.92 266.142 303.076 266.718 303.388C267.306 303.688 267.774 304.066 268.122 304.522V303.082H270.192V313H268.122V311.524C267.774 311.992 267.3 312.382 266.7 312.694C266.1 313.006 265.416 313.162 264.648 313.162C263.796 313.162 263.016 312.946 262.308 312.514C261.6 312.07 261.036 311.458 260.616 310.678C260.208 309.886 260.004 308.992 260.004 307.996ZM268.122 308.032C268.122 307.348 267.978 306.754 267.69 306.25C267.414 305.746 267.048 305.362 266.592 305.098C266.136 304.834 265.644 304.702 265.116 304.702C264.588 304.702 264.096 304.834 263.64 305.098C263.184 305.35 262.812 305.728 262.524 306.232C262.248 306.724 262.11 307.312 262.11 307.996C262.11 308.68 262.248 309.28 262.524 309.796C262.812 310.312 263.184 310.708 263.64 310.984C264.108 311.248 264.6 311.38 265.116 311.38C265.644 311.38 266.136 311.248 266.592 310.984C267.048 310.72 267.414 310.336 267.69 309.832C267.978 309.316 268.122 308.716 268.122 308.032ZM273.931 301.768C273.559 301.768 273.247 301.642 272.995 301.39C272.743 301.138 272.617 300.826 272.617 300.454C272.617 300.082 272.743 299.77 272.995 299.518C273.247 299.266 273.559 299.14 273.931 299.14C274.291 299.14 274.597 299.266 274.849 299.518C275.101 299.77 275.227 300.082 275.227 300.454C275.227 300.826 275.101 301.138 274.849 301.39C274.597 301.642 274.291 301.768 273.931 301.768ZM274.939 303.082V313H272.887V303.082H274.939ZM280.027 304.756V310.246C280.027 310.618 280.111 310.888 280.279 311.056C280.459 311.212 280.759 311.29 281.179 311.29H282.439V313H280.819C279.895 313 279.187 312.784 278.695 312.352C278.203 311.92 277.957 311.218 277.957 310.246V304.756H276.787V303.082H277.957V300.616H280.027V303.082H282.439V304.756H280.027ZM293.164 304.756H291.328V313H289.258V304.756H288.088V303.082H289.258V302.38C289.258 301.24 289.558 300.412 290.158 299.896C290.77 299.368 291.724 299.104 293.02 299.104V300.814C292.396 300.814 291.958 300.934 291.706 301.174C291.454 301.402 291.328 301.804 291.328 302.38V303.082H293.164V304.756ZM299.285 313.162C298.349 313.162 297.503 312.952 296.747 312.532C295.991 312.1 295.397 311.5 294.965 310.732C294.533 309.952 294.317 309.052 294.317 308.032C294.317 307.024 294.539 306.13 294.983 305.35C295.427 304.57 296.033 303.97 296.801 303.55C297.569 303.13 298.427 302.92 299.375 302.92C300.323 302.92 301.181 303.13 301.949 303.55C302.717 303.97 303.323 304.57 303.767 305.35C304.211 306.13 304.433 307.024 304.433 308.032C304.433 309.04 304.205 309.934 303.749 310.714C303.293 311.494 302.669 312.1 301.877 312.532C301.097 312.952 300.233 313.162 299.285 313.162ZM299.285 311.38C299.813 311.38 300.305 311.254 300.761 311.002C301.229 310.75 301.607 310.372 301.895 309.868C302.183 309.364 302.327 308.752 302.327 308.032C302.327 307.312 302.189 306.706 301.913 306.214C301.637 305.71 301.271 305.332 300.815 305.08C300.359 304.828 299.867 304.702 299.339 304.702C298.811 304.702 298.319 304.828 297.863 305.08C297.419 305.332 297.065 305.71 296.801 306.214C296.537 306.706 296.405 307.312 296.405 308.032C296.405 309.1 296.675 309.928 297.215 310.516C297.767 311.092 298.457 311.38 299.285 311.38ZM308.513 304.522C308.813 304.018 309.209 303.628 309.701 303.352C310.205 303.064 310.799 302.92 311.483 302.92V305.044H310.961C310.157 305.044 309.545 305.248 309.125 305.656C308.717 306.064 308.513 306.772 308.513 307.78V313H306.461V303.082H308.513V304.522ZM317.361 307.996C317.361 307 317.565 306.118 317.973 305.35C318.393 304.582 318.957 303.988 319.665 303.568C320.385 303.136 321.177 302.92 322.041 302.92C322.821 302.92 323.499 303.076 324.075 303.388C324.663 303.688 325.131 304.066 325.479 304.522V303.082H327.549V313H325.479V311.524C325.131 311.992 324.657 312.382 324.057 312.694C323.457 313.006 322.773 313.162 322.005 313.162C321.153 313.162 320.373 312.946 319.665 312.514C318.957 312.07 318.393 311.458 317.973 310.678C317.565 309.886 317.361 308.992 317.361 307.996ZM325.479 308.032C325.479 307.348 325.335 306.754 325.047 306.25C324.771 305.746 324.405 305.362 323.949 305.098C323.493 304.834 323.001 304.702 322.473 304.702C321.945 304.702 321.453 304.834 320.997 305.098C320.541 305.35 320.169 305.728 319.881 306.232C319.605 306.724 319.467 307.312 319.467 307.996C319.467 308.68 319.605 309.28 319.881 309.796C320.169 310.312 320.541 310.708 320.997 310.984C321.465 311.248 321.957 311.38 322.473 311.38C323.001 311.38 323.493 311.248 323.949 310.984C324.405 310.72 324.771 310.336 325.047 309.832C325.335 309.316 325.479 308.716 325.479 308.032ZM242.614 335.162C241.834 335.162 241.132 335.024 240.508 334.748C239.896 334.46 239.41 334.076 239.05 333.596C238.69 333.104 238.498 332.558 238.474 331.958H240.598C240.634 332.378 240.832 332.732 241.192 333.02C241.564 333.296 242.026 333.434 242.578 333.434C243.154 333.434 243.598 333.326 243.91 333.11C244.234 332.882 244.396 332.594 244.396 332.246C244.396 331.874 244.216 331.598 243.856 331.418C243.508 331.238 242.95 331.04 242.182 330.824C241.438 330.62 240.832 330.422 240.364 330.23C239.896 330.038 239.488 329.744 239.14 329.348C238.804 328.952 238.636 328.43 238.636 327.782C238.636 327.254 238.792 326.774 239.104 326.342C239.416 325.898 239.86 325.55 240.436 325.298C241.024 325.046 241.696 324.92 242.452 324.92C243.58 324.92 244.486 325.208 245.17 325.784C245.866 326.348 246.238 327.122 246.286 328.106H244.234C244.198 327.662 244.018 327.308 243.694 327.044C243.37 326.78 242.932 326.648 242.38 326.648C241.84 326.648 241.426 326.75 241.138 326.954C240.85 327.158 240.706 327.428 240.706 327.764C240.706 328.028 240.802 328.25 240.994 328.43C241.186 328.61 241.42 328.754 241.696 328.862C241.972 328.958 242.38 329.084 242.92 329.24C243.64 329.432 244.228 329.63 244.684 329.834C245.152 330.026 245.554 330.314 245.89 330.698C246.226 331.082 246.4 331.592 246.412 332.228C246.412 332.792 246.256 333.296 245.944 333.74C245.632 334.184 245.188 334.532 244.612 334.784C244.048 335.036 243.382 335.162 242.614 335.162ZM253.759 324.92C254.515 324.92 255.187 325.082 255.775 325.406C256.375 325.73 256.843 326.21 257.179 326.846C257.527 327.482 257.701 328.25 257.701 329.15V335H255.667V329.456C255.667 328.568 255.445 327.89 255.001 327.422C254.557 326.942 253.951 326.702 253.183 326.702C252.415 326.702 251.803 326.942 251.347 327.422C250.903 327.89 250.681 328.568 250.681 329.456V335H248.629V321.68H250.681V326.234C251.029 325.814 251.467 325.49 251.995 325.262C252.535 325.034 253.123 324.92 253.759 324.92ZM264.621 335.162C263.685 335.162 262.839 334.952 262.083 334.532C261.327 334.1 260.733 333.5 260.301 332.732C259.869 331.952 259.653 331.052 259.653 330.032C259.653 329.024 259.875 328.13 260.319 327.35C260.763 326.57 261.369 325.97 262.137 325.55C262.905 325.13 263.763 324.92 264.711 324.92C265.659 324.92 266.517 325.13 267.285 325.55C268.053 325.97 268.659 326.57 269.103 327.35C269.547 328.13 269.769 329.024 269.769 330.032C269.769 331.04 269.541 331.934 269.085 332.714C268.629 333.494 268.005 334.1 267.213 334.532C266.433 334.952 265.569 335.162 264.621 335.162ZM264.621 333.38C265.149 333.38 265.641 333.254 266.097 333.002C266.565 332.75 266.943 332.372 267.231 331.868C267.519 331.364 267.663 330.752 267.663 330.032C267.663 329.312 267.525 328.706 267.249 328.214C266.973 327.71 266.607 327.332 266.151 327.08C265.695 326.828 265.203 326.702 264.675 326.702C264.147 326.702 263.655 326.828 263.199 327.08C262.755 327.332 262.401 327.71 262.137 328.214C261.873 328.706 261.741 329.312 261.741 330.032C261.741 331.1 262.011 331.928 262.551 332.516C263.103 333.092 263.793 333.38 264.621 333.38ZM273.849 326.54C274.197 326.084 274.671 325.7 275.271 325.388C275.871 325.076 276.549 324.92 277.305 324.92C278.169 324.92 278.955 325.136 279.663 325.568C280.383 325.988 280.947 326.582 281.355 327.35C281.763 328.118 281.967 329 281.967 329.996C281.967 330.992 281.763 331.886 281.355 332.678C280.947 333.458 280.383 334.07 279.663 334.514C278.955 334.946 278.169 335.162 277.305 335.162C276.549 335.162 275.877 335.012 275.289 334.712C274.701 334.4 274.221 334.016 273.849 333.56V339.716H271.797V325.082H273.849V326.54ZM279.879 329.996C279.879 329.312 279.735 328.724 279.447 328.232C279.171 327.728 278.799 327.35 278.331 327.098C277.875 326.834 277.383 326.702 276.855 326.702C276.339 326.702 275.847 326.834 275.379 327.098C274.923 327.362 274.551 327.746 274.263 328.25C273.987 328.754 273.849 329.348 273.849 330.032C273.849 330.716 273.987 331.316 274.263 331.832C274.551 332.336 274.923 332.72 275.379 332.984C275.847 333.248 276.339 333.38 276.855 333.38C277.383 333.38 277.875 333.248 278.331 332.984C278.799 332.708 279.171 332.312 279.447 331.796C279.735 331.28 279.879 330.68 279.879 329.996ZM286.048 326.54C286.396 326.084 286.87 325.7 287.47 325.388C288.07 325.076 288.748 324.92 289.504 324.92C290.368 324.92 291.154 325.136 291.862 325.568C292.582 325.988 293.146 326.582 293.554 327.35C293.962 328.118 294.166 329 294.166 329.996C294.166 330.992 293.962 331.886 293.554 332.678C293.146 333.458 292.582 334.07 291.862 334.514C291.154 334.946 290.368 335.162 289.504 335.162C288.748 335.162 288.076 335.012 287.488 334.712C286.9 334.4 286.42 334.016 286.048 333.56V339.716H283.996V325.082H286.048V326.54ZM292.078 329.996C292.078 329.312 291.934 328.724 291.646 328.232C291.37 327.728 290.998 327.35 290.53 327.098C290.074 326.834 289.582 326.702 289.054 326.702C288.538 326.702 288.046 326.834 287.578 327.098C287.122 327.362 286.75 327.746 286.462 328.25C286.186 328.754 286.048 329.348 286.048 330.032C286.048 330.716 286.186 331.316 286.462 331.832C286.75 332.336 287.122 332.72 287.578 332.984C288.046 333.248 288.538 333.38 289.054 333.38C289.582 333.38 290.074 333.248 290.53 332.984C290.998 332.708 291.37 332.312 291.646 331.796C291.934 331.28 292.078 330.68 292.078 329.996ZM305.286 329.798C305.286 330.17 305.262 330.506 305.214 330.806H297.636C297.696 331.598 297.99 332.234 298.518 332.714C299.046 333.194 299.694 333.434 300.462 333.434C301.566 333.434 302.346 332.972 302.802 332.048H305.016C304.716 332.96 304.17 333.71 303.378 334.298C302.598 334.874 301.626 335.162 300.462 335.162C299.514 335.162 298.662 334.952 297.906 334.532C297.162 334.1 296.574 333.5 296.142 332.732C295.722 331.952 295.512 331.052 295.512 330.032C295.512 329.012 295.716 328.118 296.124 327.35C296.544 326.57 297.126 325.97 297.87 325.55C298.626 325.13 299.49 324.92 300.462 324.92C301.398 324.92 302.232 325.124 302.964 325.532C303.696 325.94 304.266 326.516 304.674 327.26C305.082 327.992 305.286 328.838 305.286 329.798ZM303.144 329.15C303.132 328.394 302.862 327.788 302.334 327.332C301.806 326.876 301.152 326.648 300.372 326.648C299.664 326.648 299.058 326.876 298.554 327.332C298.05 327.776 297.75 328.382 297.654 329.15H303.144ZM309.357 326.522C309.657 326.018 310.053 325.628 310.545 325.352C311.049 325.064 311.643 324.92 312.327 324.92V327.044H311.805C311.001 327.044 310.389 327.248 309.969 327.656C309.561 328.064 309.357 328.772 309.357 329.78V335H307.305V325.082H309.357V326.522ZM321.283 326.756V332.246C321.283 332.618 321.367 332.888 321.535 333.056C321.715 333.212 322.015 333.29 322.435 333.29H323.695V335H322.075C321.151 335 320.443 334.784 319.951 334.352C319.459 333.92 319.213 333.218 319.213 332.246V326.756H318.043V325.082H319.213V322.616H321.283V325.082H323.695V326.756H321.283ZM329.888 335.162C328.952 335.162 328.106 334.952 327.35 334.532C326.594 334.1 326 333.5 325.568 332.732C325.136 331.952 324.92 331.052 324.92 330.032C324.92 329.024 325.142 328.13 325.586 327.35C326.03 326.57 326.636 325.97 327.404 325.55C328.172 325.13 329.03 324.92 329.978 324.92C330.926 324.92 331.784 325.13 332.552 325.55C333.32 325.97 333.926 326.57 334.37 327.35C334.814 328.13 335.036 329.024 335.036 330.032C335.036 331.04 334.808 331.934 334.352 332.714C333.896 333.494 333.272 334.1 332.48 334.532C331.7 334.952 330.836 335.162 329.888 335.162ZM329.888 333.38C330.416 333.38 330.908 333.254 331.364 333.002C331.832 332.75 332.21 332.372 332.498 331.868C332.786 331.364 332.93 330.752 332.93 330.032C332.93 329.312 332.792 328.706 332.516 328.214C332.24 327.71 331.874 327.332 331.418 327.08C330.962 326.828 330.47 326.702 329.942 326.702C329.414 326.702 328.922 326.828 328.466 327.08C328.022 327.332 327.668 327.71 327.404 328.214C327.14 328.706 327.008 329.312 327.008 330.032C327.008 331.1 327.278 331.928 327.818 332.516C328.37 333.092 329.06 333.38 329.888 333.38ZM255.46 351.996C255.46 351 255.664 350.118 256.072 349.35C256.492 348.582 257.056 347.988 257.764 347.568C258.484 347.136 259.276 346.92 260.14 346.92C260.92 346.92 261.598 347.076 262.174 347.388C262.762 347.688 263.23 348.066 263.578 348.522V347.082H265.648V357H263.578V355.524C263.23 355.992 262.756 356.382 262.156 356.694C261.556 357.006 260.872 357.162 260.104 357.162C259.252 357.162 258.472 356.946 257.764 356.514C257.056 356.07 256.492 355.458 256.072 354.678C255.664 353.886 255.46 352.992 255.46 351.996ZM263.578 352.032C263.578 351.348 263.434 350.754 263.146 350.25C262.87 349.746 262.504 349.362 262.048 349.098C261.592 348.834 261.1 348.702 260.572 348.702C260.044 348.702 259.552 348.834 259.096 349.098C258.64 349.35 258.268 349.728 257.98 350.232C257.704 350.724 257.566 351.312 257.566 351.996C257.566 352.68 257.704 353.28 257.98 353.796C258.268 354.312 258.64 354.708 259.096 354.984C259.564 355.248 260.056 355.38 260.572 355.38C261.1 355.38 261.592 355.248 262.048 354.984C262.504 354.72 262.87 354.336 263.146 353.832C263.434 353.316 263.578 352.716 263.578 352.032ZM267.659 352.032C267.659 351.012 267.863 350.118 268.271 349.35C268.691 348.57 269.267 347.97 269.999 347.55C270.731 347.13 271.571 346.92 272.519 346.92C273.719 346.92 274.709 347.208 275.489 347.784C276.281 348.348 276.815 349.158 277.091 350.214H274.877C274.697 349.722 274.409 349.338 274.013 349.062C273.617 348.786 273.119 348.648 272.519 348.648C271.679 348.648 271.007 348.948 270.503 349.548C270.011 350.136 269.765 350.964 269.765 352.032C269.765 353.1 270.011 353.934 270.503 354.534C271.007 355.134 271.679 355.434 272.519 355.434C273.707 355.434 274.493 354.912 274.877 353.868H277.091C276.803 354.876 276.263 355.68 275.471 356.28C274.679 356.868 273.695 357.162 272.519 357.162C271.571 357.162 270.731 356.952 269.999 356.532C269.267 356.1 268.691 355.5 268.271 354.732C267.863 353.952 267.659 353.052 267.659 352.032ZM278.452 352.032C278.452 351.012 278.656 350.118 279.064 349.35C279.484 348.57 280.06 347.97 280.792 347.55C281.524 347.13 282.364 346.92 283.312 346.92C284.512 346.92 285.502 347.208 286.282 347.784C287.074 348.348 287.608 349.158 287.884 350.214H285.67C285.49 349.722 285.202 349.338 284.806 349.062C284.41 348.786 283.912 348.648 283.312 348.648C282.472 348.648 281.8 348.948 281.296 349.548C280.804 350.136 280.558 350.964 280.558 352.032C280.558 353.1 280.804 353.934 281.296 354.534C281.8 355.134 282.472 355.434 283.312 355.434C284.5 355.434 285.286 354.912 285.67 353.868H287.884C287.596 354.876 287.056 355.68 286.264 356.28C285.472 356.868 284.488 357.162 283.312 357.162C282.364 357.162 281.524 356.952 280.792 356.532C280.06 356.1 279.484 355.5 279.064 354.732C278.656 353.952 278.452 353.052 278.452 352.032ZM299.019 351.798C299.019 352.17 298.995 352.506 298.947 352.806H291.369C291.429 353.598 291.723 354.234 292.251 354.714C292.779 355.194 293.427 355.434 294.195 355.434C295.299 355.434 296.079 354.972 296.535 354.048H298.749C298.449 354.96 297.903 355.71 297.111 356.298C296.331 356.874 295.359 357.162 294.195 357.162C293.247 357.162 292.395 356.952 291.639 356.532C290.895 356.1 290.307 355.5 289.875 354.732C289.455 353.952 289.245 353.052 289.245 352.032C289.245 351.012 289.449 350.118 289.857 349.35C290.277 348.57 290.859 347.97 291.603 347.55C292.359 347.13 293.223 346.92 294.195 346.92C295.131 346.92 295.965 347.124 296.697 347.532C297.429 347.94 297.999 348.516 298.407 349.26C298.815 349.992 299.019 350.838 299.019 351.798ZM296.877 351.15C296.865 350.394 296.595 349.788 296.067 349.332C295.539 348.876 294.885 348.648 294.105 348.648C293.397 348.648 292.791 348.876 292.287 349.332C291.783 349.776 291.483 350.382 291.387 351.15H296.877ZM303.09 348.54C303.438 348.084 303.912 347.7 304.512 347.388C305.112 347.076 305.79 346.92 306.546 346.92C307.41 346.92 308.196 347.136 308.904 347.568C309.624 347.988 310.188 348.582 310.596 349.35C311.004 350.118 311.208 351 311.208 351.996C311.208 352.992 311.004 353.886 310.596 354.678C310.188 355.458 309.624 356.07 308.904 356.514C308.196 356.946 307.41 357.162 306.546 357.162C305.79 357.162 305.118 357.012 304.53 356.712C303.942 356.4 303.462 356.016 303.09 355.56V361.716H301.038V347.082H303.09V348.54ZM309.12 351.996C309.12 351.312 308.976 350.724 308.688 350.232C308.412 349.728 308.04 349.35 307.572 349.098C307.116 348.834 306.624 348.702 306.096 348.702C305.58 348.702 305.088 348.834 304.62 349.098C304.164 349.362 303.792 349.746 303.504 350.25C303.228 350.754 303.09 351.348 303.09 352.032C303.09 352.716 303.228 353.316 303.504 353.832C303.792 354.336 304.164 354.72 304.62 354.984C305.088 355.248 305.58 355.38 306.096 355.38C306.624 355.38 307.116 355.248 307.572 354.984C308.04 354.708 308.412 354.312 308.688 353.796C308.976 353.28 309.12 352.68 309.12 351.996ZM315.632 348.756V354.246C315.632 354.618 315.716 354.888 315.884 355.056C316.064 355.212 316.364 355.29 316.784 355.29H318.044V357H316.424C315.5 357 314.792 356.784 314.3 356.352C313.808 355.92 313.562 355.218 313.562 354.246V348.756H312.392V347.082H313.562V344.616H315.632V347.082H318.044V348.756H315.632Z" fill="#011638"/>
<path d="M454.721 308.032C454.721 307.012 454.925 306.118 455.333 305.35C455.753 304.57 456.329 303.97 457.061 303.55C457.793 303.13 458.633 302.92 459.581 302.92C460.781 302.92 461.771 303.208 462.551 303.784C463.343 304.348 463.877 305.158 464.153 306.214H461.939C461.759 305.722 461.471 305.338 461.075 305.062C460.679 304.786 460.181 304.648 459.581 304.648C458.741 304.648 458.069 304.948 457.565 305.548C457.073 306.136 456.827 306.964 456.827 308.032C456.827 309.1 457.073 309.934 457.565 310.534C458.069 311.134 458.741 311.434 459.581 311.434C460.769 311.434 461.555 310.912 461.939 309.868H464.153C463.865 310.876 463.325 311.68 462.533 312.28C461.741 312.868 460.757 313.162 459.581 313.162C458.633 313.162 457.793 312.952 457.061 312.532C456.329 312.1 455.753 311.5 455.333 310.732C454.925 309.952 454.721 309.052 454.721 308.032ZM471.328 302.92C472.084 302.92 472.756 303.082 473.344 303.406C473.944 303.73 474.412 304.21 474.748 304.846C475.096 305.482 475.27 306.25 475.27 307.15V313H473.236V307.456C473.236 306.568 473.014 305.89 472.57 305.422C472.126 304.942 471.52 304.702 470.752 304.702C469.984 304.702 469.372 304.942 468.916 305.422C468.472 305.89 468.25 306.568 468.25 307.456V313H466.198V299.68H468.25V304.234C468.598 303.814 469.036 303.49 469.564 303.262C470.104 303.034 470.692 302.92 471.328 302.92ZM477.203 307.996C477.203 307 477.407 306.118 477.815 305.35C478.235 304.582 478.799 303.988 479.507 303.568C480.227 303.136 481.019 302.92 481.883 302.92C482.663 302.92 483.341 303.076 483.917 303.388C484.505 303.688 484.973 304.066 485.321 304.522V303.082H487.391V313H485.321V311.524C484.973 311.992 484.499 312.382 483.899 312.694C483.299 313.006 482.615 313.162 481.847 313.162C480.995 313.162 480.215 312.946 479.507 312.514C478.799 312.07 478.235 311.458 477.815 310.678C477.407 309.886 477.203 308.992 477.203 307.996ZM485.321 308.032C485.321 307.348 485.177 306.754 484.889 306.25C484.613 305.746 484.247 305.362 483.791 305.098C483.335 304.834 482.843 304.702 482.315 304.702C481.787 304.702 481.295 304.834 480.839 305.098C480.383 305.35 480.011 305.728 479.723 306.232C479.447 306.724 479.309 307.312 479.309 307.996C479.309 308.68 479.447 309.28 479.723 309.796C480.011 310.312 480.383 310.708 480.839 310.984C481.307 311.248 481.799 311.38 482.315 311.38C482.843 311.38 483.335 311.248 483.791 310.984C484.247 310.72 484.613 310.336 484.889 309.832C485.177 309.316 485.321 308.716 485.321 308.032ZM492.48 304.756V310.246C492.48 310.618 492.564 310.888 492.732 311.056C492.912 311.212 493.212 311.29 493.632 311.29H494.892V313H493.272C492.348 313 491.64 312.784 491.148 312.352C490.656 311.92 490.41 311.218 490.41 310.246V304.756H489.24V303.082H490.41V300.616H492.48V303.082H494.892V304.756H492.48ZM514.779 303.082L511.701 313H509.541L507.543 305.674L505.545 313H503.385L500.289 303.082H502.377L504.447 311.056L506.553 303.082H508.695L510.711 311.02L512.763 303.082H514.779ZM517.357 301.768C516.985 301.768 516.673 301.642 516.421 301.39C516.169 301.138 516.043 300.826 516.043 300.454C516.043 300.082 516.169 299.77 516.421 299.518C516.673 299.266 516.985 299.14 517.357 299.14C517.717 299.14 518.023 299.266 518.275 299.518C518.527 299.77 518.653 300.082 518.653 300.454C518.653 300.826 518.527 301.138 518.275 301.39C518.023 301.642 517.717 301.768 517.357 301.768ZM518.365 303.082V313H516.313V303.082H518.365ZM523.453 304.756V310.246C523.453 310.618 523.537 310.888 523.705 311.056C523.885 311.212 524.185 311.29 524.605 311.29H525.865V313H524.245C523.321 313 522.613 312.784 522.121 312.352C521.629 311.92 521.383 311.218 521.383 310.246V304.756H520.213V303.082H521.383V300.616H523.453V303.082H525.865V304.756H523.453ZM532.886 302.92C533.642 302.92 534.314 303.082 534.902 303.406C535.502 303.73 535.97 304.21 536.306 304.846C536.654 305.482 536.828 306.25 536.828 307.15V313H534.794V307.456C534.794 306.568 534.572 305.89 534.128 305.422C533.684 304.942 533.078 304.702 532.31 304.702C531.542 304.702 530.93 304.942 530.474 305.422C530.03 305.89 529.808 306.568 529.808 307.456V313H527.756V299.68H529.808V304.234C530.156 303.814 530.594 303.49 531.122 303.262C531.662 303.034 532.25 302.92 532.886 302.92ZM553.049 303.082L546.965 317.662H544.841L546.857 312.838L542.951 303.082H545.237L548.027 310.642L550.925 303.082H553.049ZM558.9 313.162C557.964 313.162 557.118 312.952 556.362 312.532C555.606 312.1 555.012 311.5 554.58 310.732C554.148 309.952 553.932 309.052 553.932 308.032C553.932 307.024 554.154 306.13 554.598 305.35C555.042 304.57 555.648 303.97 556.416 303.55C557.184 303.13 558.042 302.92 558.99 302.92C559.938 302.92 560.796 303.13 561.564 303.55C562.332 303.97 562.938 304.57 563.382 305.35C563.826 306.13 564.048 307.024 564.048 308.032C564.048 309.04 563.82 309.934 563.364 310.714C562.908 311.494 562.284 312.1 561.492 312.532C560.712 312.952 559.848 313.162 558.9 313.162ZM558.9 311.38C559.428 311.38 559.92 311.254 560.376 311.002C560.844 310.75 561.222 310.372 561.51 309.868C561.798 309.364 561.942 308.752 561.942 308.032C561.942 307.312 561.804 306.706 561.528 306.214C561.252 305.71 560.886 305.332 560.43 305.08C559.974 304.828 559.482 304.702 558.954 304.702C558.426 304.702 557.934 304.828 557.478 305.08C557.034 305.332 556.68 305.71 556.416 306.214C556.152 306.706 556.02 307.312 556.02 308.032C556.02 309.1 556.29 309.928 556.83 310.516C557.382 311.092 558.072 311.38 558.9 311.38ZM575.059 303.082V313H573.007V311.83C572.683 312.238 572.257 312.562 571.729 312.802C571.213 313.03 570.661 313.144 570.073 313.144C569.293 313.144 568.591 312.982 567.967 312.658C567.355 312.334 566.869 311.854 566.509 311.218C566.161 310.582 565.987 309.814 565.987 308.914V303.082H568.021V308.608C568.021 309.496 568.243 310.18 568.687 310.66C569.131 311.128 569.737 311.362 570.505 311.362C571.273 311.362 571.879 311.128 572.323 310.66C572.779 310.18 573.007 309.496 573.007 308.608V303.082H575.059ZM579.818 304.522C580.118 304.018 580.514 303.628 581.006 303.352C581.51 303.064 582.104 302.92 582.788 302.92V305.044H582.266C581.462 305.044 580.85 305.248 580.43 305.656C580.022 306.064 579.818 306.772 579.818 307.78V313H577.766V303.082H579.818V304.522ZM486.04 335.162C485.26 335.162 484.558 335.024 483.934 334.748C483.322 334.46 482.836 334.076 482.476 333.596C482.116 333.104 481.924 332.558 481.9 331.958H484.024C484.06 332.378 484.258 332.732 484.618 333.02C484.99 333.296 485.452 333.434 486.004 333.434C486.58 333.434 487.024 333.326 487.336 333.11C487.66 332.882 487.822 332.594 487.822 332.246C487.822 331.874 487.642 331.598 487.282 331.418C486.934 331.238 486.376 331.04 485.608 330.824C484.864 330.62 484.258 330.422 483.79 330.23C483.322 330.038 482.914 329.744 482.566 329.348C482.23 328.952 482.062 328.43 482.062 327.782C482.062 327.254 482.218 326.774 482.53 326.342C482.842 325.898 483.286 325.55 483.862 325.298C484.45 325.046 485.122 324.92 485.878 324.92C487.006 324.92 487.912 325.208 488.596 325.784C489.292 326.348 489.664 327.122 489.712 328.106H487.66C487.624 327.662 487.444 327.308 487.12 327.044C486.796 326.78 486.358 326.648 485.806 326.648C485.266 326.648 484.852 326.75 484.564 326.954C484.276 327.158 484.132 327.428 484.132 327.764C484.132 328.028 484.228 328.25 484.42 328.43C484.612 328.61 484.846 328.754 485.122 328.862C485.398 328.958 485.806 329.084 486.346 329.24C487.066 329.432 487.654 329.63 488.11 329.834C488.578 330.026 488.98 330.314 489.316 330.698C489.652 331.082 489.826 331.592 489.838 332.228C489.838 332.792 489.682 333.296 489.37 333.74C489.058 334.184 488.614 334.532 488.038 334.784C487.474 335.036 486.808 335.162 486.04 335.162ZM497.185 324.92C497.941 324.92 498.613 325.082 499.201 325.406C499.801 325.73 500.269 326.21 500.605 326.846C500.953 327.482 501.127 328.25 501.127 329.15V335H499.093V329.456C499.093 328.568 498.871 327.89 498.427 327.422C497.983 326.942 497.377 326.702 496.609 326.702C495.841 326.702 495.229 326.942 494.773 327.422C494.329 327.89 494.107 328.568 494.107 329.456V335H492.055V321.68H494.107V326.234C494.455 325.814 494.893 325.49 495.421 325.262C495.961 325.034 496.549 324.92 497.185 324.92ZM508.046 335.162C507.11 335.162 506.264 334.952 505.508 334.532C504.752 334.1 504.158 333.5 503.726 332.732C503.294 331.952 503.078 331.052 503.078 330.032C503.078 329.024 503.3 328.13 503.744 327.35C504.188 326.57 504.794 325.97 505.562 325.55C506.33 325.13 507.188 324.92 508.136 324.92C509.084 324.92 509.942 325.13 510.71 325.55C511.478 325.97 512.084 326.57 512.528 327.35C512.972 328.13 513.194 329.024 513.194 330.032C513.194 331.04 512.966 331.934 512.51 332.714C512.054 333.494 511.43 334.1 510.638 334.532C509.858 334.952 508.994 335.162 508.046 335.162ZM508.046 333.38C508.574 333.38 509.066 333.254 509.522 333.002C509.99 332.75 510.368 332.372 510.656 331.868C510.944 331.364 511.088 330.752 511.088 330.032C511.088 329.312 510.95 328.706 510.674 328.214C510.398 327.71 510.032 327.332 509.576 327.08C509.12 326.828 508.628 326.702 508.1 326.702C507.572 326.702 507.08 326.828 506.624 327.08C506.18 327.332 505.826 327.71 505.562 328.214C505.298 328.706 505.166 329.312 505.166 330.032C505.166 331.1 505.436 331.928 505.976 332.516C506.528 333.092 507.218 333.38 508.046 333.38ZM517.275 326.54C517.623 326.084 518.097 325.7 518.697 325.388C519.297 325.076 519.975 324.92 520.731 324.92C521.595 324.92 522.381 325.136 523.089 325.568C523.809 325.988 524.373 326.582 524.781 327.35C525.189 328.118 525.393 329 525.393 329.996C525.393 330.992 525.189 331.886 524.781 332.678C524.373 333.458 523.809 334.07 523.089 334.514C522.381 334.946 521.595 335.162 520.731 335.162C519.975 335.162 519.303 335.012 518.715 334.712C518.127 334.4 517.647 334.016 517.275 333.56V339.716H515.223V325.082H517.275V326.54ZM523.305 329.996C523.305 329.312 523.161 328.724 522.873 328.232C522.597 327.728 522.225 327.35 521.757 327.098C521.301 326.834 520.809 326.702 520.281 326.702C519.765 326.702 519.273 326.834 518.805 327.098C518.349 327.362 517.977 327.746 517.689 328.25C517.413 328.754 517.275 329.348 517.275 330.032C517.275 330.716 517.413 331.316 517.689 331.832C517.977 332.336 518.349 332.72 518.805 332.984C519.273 333.248 519.765 333.38 520.281 333.38C520.809 333.38 521.301 333.248 521.757 332.984C522.225 332.708 522.597 332.312 522.873 331.796C523.161 331.28 523.305 330.68 523.305 329.996ZM529.474 326.54C529.822 326.084 530.296 325.7 530.896 325.388C531.496 325.076 532.174 324.92 532.93 324.92C533.794 324.92 534.58 325.136 535.288 325.568C536.008 325.988 536.572 326.582 536.98 327.35C537.388 328.118 537.592 329 537.592 329.996C537.592 330.992 537.388 331.886 536.98 332.678C536.572 333.458 536.008 334.07 535.288 334.514C534.58 334.946 533.794 335.162 532.93 335.162C532.174 335.162 531.502 335.012 530.914 334.712C530.326 334.4 529.846 334.016 529.474 333.56V339.716H527.422V325.082H529.474V326.54ZM535.504 329.996C535.504 329.312 535.36 328.724 535.072 328.232C534.796 327.728 534.424 327.35 533.956 327.098C533.5 326.834 533.008 326.702 532.48 326.702C531.964 326.702 531.472 326.834 531.004 327.098C530.548 327.362 530.176 327.746 529.888 328.25C529.612 328.754 529.474 329.348 529.474 330.032C529.474 330.716 529.612 331.316 529.888 331.832C530.176 332.336 530.548 332.72 531.004 332.984C531.472 333.248 531.964 333.38 532.48 333.38C533.008 333.38 533.5 333.248 533.956 332.984C534.424 332.708 534.796 332.312 535.072 331.796C535.36 331.28 535.504 330.68 535.504 329.996ZM548.711 329.798C548.711 330.17 548.687 330.506 548.639 330.806H541.061C541.121 331.598 541.415 332.234 541.943 332.714C542.471 333.194 543.119 333.434 543.887 333.434C544.991 333.434 545.771 332.972 546.227 332.048H548.441C548.141 332.96 547.595 333.71 546.803 334.298C546.023 334.874 545.051 335.162 543.887 335.162C542.939 335.162 542.087 334.952 541.331 334.532C540.587 334.1 539.999 333.5 539.567 332.732C539.147 331.952 538.937 331.052 538.937 330.032C538.937 329.012 539.141 328.118 539.549 327.35C539.969 326.57 540.551 325.97 541.295 325.55C542.051 325.13 542.915 324.92 543.887 324.92C544.823 324.92 545.657 325.124 546.389 325.532C547.121 325.94 547.691 326.516 548.099 327.26C548.507 327.992 548.711 328.838 548.711 329.798ZM546.569 329.15C546.557 328.394 546.287 327.788 545.759 327.332C545.231 326.876 544.577 326.648 543.797 326.648C543.089 326.648 542.483 326.876 541.979 327.332C541.475 327.776 541.175 328.382 541.079 329.15H546.569ZM552.783 326.522C553.083 326.018 553.479 325.628 553.971 325.352C554.475 325.064 555.069 324.92 555.753 324.92V327.044H555.231C554.427 327.044 553.815 327.248 553.395 327.656C552.987 328.064 552.783 328.772 552.783 329.78V335H550.731V325.082H552.783V326.522Z" fill="#011638"/>
<path d="M684.52 304.54C684.868 304.084 685.342 303.7 685.942 303.388C686.542 303.076 687.22 302.92 687.976 302.92C688.84 302.92 689.626 303.136 690.334 303.568C691.054 303.988 691.618 304.582 692.026 305.35C692.434 306.118 692.638 307 692.638 307.996C692.638 308.992 692.434 309.886 692.026 310.678C691.618 311.458 691.054 312.07 690.334 312.514C689.626 312.946 688.84 313.162 687.976 313.162C687.22 313.162 686.548 313.012 685.96 312.712C685.372 312.4 684.892 312.016 684.52 311.56V317.716H682.468V303.082H684.52V304.54ZM690.55 307.996C690.55 307.312 690.406 306.724 690.118 306.232C689.842 305.728 689.47 305.35 689.002 305.098C688.546 304.834 688.054 304.702 687.526 304.702C687.01 304.702 686.518 304.834 686.05 305.098C685.594 305.362 685.222 305.746 684.934 306.25C684.658 306.754 684.52 307.348 684.52 308.032C684.52 308.716 684.658 309.316 684.934 309.832C685.222 310.336 685.594 310.72 686.05 310.984C686.518 311.248 687.01 311.38 687.526 311.38C688.054 311.38 688.546 311.248 689.002 310.984C689.47 310.708 689.842 310.312 690.118 309.796C690.406 309.28 690.55 308.68 690.55 307.996ZM693.983 307.996C693.983 307 694.187 306.118 694.595 305.35C695.015 304.582 695.579 303.988 696.287 303.568C697.007 303.136 697.799 302.92 698.663 302.92C699.443 302.92 700.121 303.076 700.697 303.388C701.285 303.688 701.753 304.066 702.101 304.522V303.082H704.171V313H702.101V311.524C701.753 311.992 701.279 312.382 700.679 312.694C700.079 313.006 699.395 313.162 698.627 313.162C697.775 313.162 696.995 312.946 696.287 312.514C695.579 312.07 695.015 311.458 694.595 310.678C694.187 309.886 693.983 308.992 693.983 307.996ZM702.101 308.032C702.101 307.348 701.957 306.754 701.669 306.25C701.393 305.746 701.027 305.362 700.571 305.098C700.115 304.834 699.623 304.702 699.095 304.702C698.567 304.702 698.075 304.834 697.619 305.098C697.163 305.35 696.791 305.728 696.503 306.232C696.227 306.724 696.089 307.312 696.089 307.996C696.089 308.68 696.227 309.28 696.503 309.796C696.791 310.312 697.163 310.708 697.619 310.984C698.087 311.248 698.579 311.38 699.095 311.38C699.623 311.38 700.115 311.248 700.571 310.984C701.027 310.72 701.393 310.336 701.669 309.832C701.957 309.316 702.101 308.716 702.101 308.032ZM715.795 303.082L709.711 317.662H707.587L709.603 312.838L705.697 303.082H707.983L710.773 310.642L713.671 303.082H715.795ZM726.177 304.756H724.341V313H722.271V304.756H721.101V303.082H722.271V302.38C722.271 301.24 722.571 300.412 723.171 299.896C723.783 299.368 724.737 299.104 726.033 299.104V300.814C725.409 300.814 724.971 300.934 724.719 301.174C724.467 301.402 724.341 301.804 724.341 302.38V303.082H726.177V304.756ZM732.297 313.162C731.361 313.162 730.515 312.952 729.759 312.532C729.003 312.1 728.409 311.5 727.977 310.732C727.545 309.952 727.329 309.052 727.329 308.032C727.329 307.024 727.551 306.13 727.995 305.35C728.439 304.57 729.045 303.97 729.813 303.55C730.581 303.13 731.439 302.92 732.387 302.92C733.335 302.92 734.193 303.13 734.961 303.55C735.729 303.97 736.335 304.57 736.779 305.35C737.223 306.13 737.445 307.024 737.445 308.032C737.445 309.04 737.217 309.934 736.761 310.714C736.305 311.494 735.681 312.1 734.889 312.532C734.109 312.952 733.245 313.162 732.297 313.162ZM732.297 311.38C732.825 311.38 733.317 311.254 733.773 311.002C734.241 310.75 734.619 310.372 734.907 309.868C735.195 309.364 735.339 308.752 735.339 308.032C735.339 307.312 735.201 306.706 734.925 306.214C734.649 305.71 734.283 305.332 733.827 305.08C733.371 304.828 732.879 304.702 732.351 304.702C731.823 304.702 731.331 304.828 730.875 305.08C730.431 305.332 730.077 305.71 729.813 306.214C729.549 306.706 729.417 307.312 729.417 308.032C729.417 309.1 729.687 309.928 730.227 310.516C730.779 311.092 731.469 311.38 732.297 311.38ZM741.526 304.522C741.826 304.018 742.222 303.628 742.714 303.352C743.218 303.064 743.812 302.92 744.496 302.92V305.044H743.974C743.17 305.044 742.558 305.248 742.138 305.656C741.73 306.064 741.526 306.772 741.526 307.78V313H739.474V303.082H741.526V304.522ZM759.986 303.082L753.902 317.662H751.778L753.794 312.838L749.888 303.082H752.174L754.964 310.642L757.862 303.082H759.986ZM765.837 313.162C764.901 313.162 764.055 312.952 763.299 312.532C762.543 312.1 761.949 311.5 761.517 310.732C761.085 309.952 760.869 309.052 760.869 308.032C760.869 307.024 761.091 306.13 761.535 305.35C761.979 304.57 762.585 303.97 763.353 303.55C764.121 303.13 764.979 302.92 765.927 302.92C766.875 302.92 767.733 303.13 768.501 303.55C769.269 303.97 769.875 304.57 770.319 305.35C770.763 306.13 770.985 307.024 770.985 308.032C770.985 309.04 770.757 309.934 770.301 310.714C769.845 311.494 769.221 312.1 768.429 312.532C767.649 312.952 766.785 313.162 765.837 313.162ZM765.837 311.38C766.365 311.38 766.857 311.254 767.313 311.002C767.781 310.75 768.159 310.372 768.447 309.868C768.735 309.364 768.879 308.752 768.879 308.032C768.879 307.312 768.741 306.706 768.465 306.214C768.189 305.71 767.823 305.332 767.367 305.08C766.911 304.828 766.419 304.702 765.891 304.702C765.363 304.702 764.871 304.828 764.415 305.08C763.971 305.332 763.617 305.71 763.353 306.214C763.089 306.706 762.957 307.312 762.957 308.032C762.957 309.1 763.227 309.928 763.767 310.516C764.319 311.092 765.009 311.38 765.837 311.38ZM781.995 303.082V313H779.943V311.83C779.619 312.238 779.193 312.562 778.665 312.802C778.149 313.03 777.597 313.144 777.009 313.144C776.229 313.144 775.527 312.982 774.903 312.658C774.291 312.334 773.805 311.854 773.445 311.218C773.097 310.582 772.923 309.814 772.923 308.914V303.082H774.957V308.608C774.957 309.496 775.179 310.18 775.623 310.66C776.067 311.128 776.673 311.362 777.441 311.362C778.209 311.362 778.815 311.128 779.259 310.66C779.715 310.18 779.943 309.496 779.943 308.608V303.082H781.995ZM786.754 304.522C787.054 304.018 787.45 303.628 787.942 303.352C788.446 303.064 789.04 302.92 789.724 302.92V305.044H789.202C788.398 305.044 787.786 305.248 787.366 305.656C786.958 306.064 786.754 306.772 786.754 307.78V313H784.702V303.082H786.754V304.522ZM726.226 324.92C726.994 324.92 727.672 325.076 728.26 325.388C728.86 325.688 729.328 326.066 729.664 326.522V325.082H731.734V335.162C731.734 336.074 731.542 336.884 731.158 337.592C730.774 338.312 730.216 338.876 729.484 339.284C728.764 339.692 727.9 339.896 726.892 339.896C725.548 339.896 724.432 339.578 723.544 338.942C722.656 338.318 722.152 337.466 722.032 336.386H724.066C724.222 336.902 724.552 337.316 725.056 337.628C725.572 337.952 726.184 338.114 726.892 338.114C727.72 338.114 728.386 337.862 728.89 337.358C729.406 336.854 729.664 336.122 729.664 335.162V333.506C729.316 333.974 728.842 334.37 728.242 334.694C727.654 335.006 726.982 335.162 726.226 335.162C725.362 335.162 724.57 334.946 723.85 334.514C723.142 334.07 722.578 333.458 722.158 332.678C721.75 331.886 721.546 330.992 721.546 329.996C721.546 329 721.75 328.118 722.158 327.35C722.578 326.582 723.142 325.988 723.85 325.568C724.57 325.136 725.362 324.92 726.226 324.92ZM729.664 330.032C729.664 329.348 729.52 328.754 729.232 328.25C728.956 327.746 728.59 327.362 728.134 327.098C727.678 326.834 727.186 326.702 726.658 326.702C726.13 326.702 725.638 326.834 725.182 327.098C724.726 327.35 724.354 327.728 724.066 328.232C723.79 328.724 723.652 329.312 723.652 329.996C723.652 330.68 723.79 331.28 724.066 331.796C724.354 332.312 724.726 332.708 725.182 332.984C725.65 333.248 726.142 333.38 726.658 333.38C727.186 333.38 727.678 333.248 728.134 332.984C728.59 332.72 728.956 332.336 729.232 331.832C729.52 331.316 729.664 330.716 729.664 330.032ZM735.473 323.768C735.101 323.768 734.789 323.642 734.537 323.39C734.285 323.138 734.159 322.826 734.159 322.454C734.159 322.082 734.285 321.77 734.537 321.518C734.789 321.266 735.101 321.14 735.473 321.14C735.833 321.14 736.139 321.266 736.391 321.518C736.643 321.77 736.769 322.082 736.769 322.454C736.769 322.826 736.643 323.138 736.391 323.39C736.139 323.642 735.833 323.768 735.473 323.768ZM736.481 325.082V335H734.429V325.082H736.481ZM743.333 326.756H741.497V335H739.427V326.756H738.257V325.082H739.427V324.38C739.427 323.24 739.727 322.412 740.327 321.896C740.939 321.368 741.893 321.104 743.189 321.104V322.814C742.565 322.814 742.127 322.934 741.875 323.174C741.623 323.402 741.497 323.804 741.497 324.38V325.082H743.333V326.756ZM747.546 326.756V332.246C747.546 332.618 747.63 332.888 747.798 333.056C747.978 333.212 748.278 333.29 748.698 333.29H749.958V335H748.338C747.414 335 746.706 334.784 746.214 334.352C745.722 333.92 745.476 333.218 745.476 332.246V326.756H744.306V325.082H745.476V322.616H747.546V325.082H749.958V326.756H747.546Z" fill="#011638"/>
<path d="M912.801 304.522C913.101 304.018 913.497 303.628 913.989 303.352C914.493 303.064 915.087 302.92 915.771 302.92V305.044H915.249C914.445 305.044 913.833 305.248 913.413 305.656C913.005 306.064 912.801 306.772 912.801 307.78V313H910.749V303.082H912.801V304.522ZM926.747 307.798C926.747 308.17 926.723 308.506 926.675 308.806H919.097C919.157 309.598 919.451 310.234 919.979 310.714C920.507 311.194 921.155 311.434 921.923 311.434C923.027 311.434 923.807 310.972 924.263 310.048H926.477C926.177 310.96 925.631 311.71 924.839 312.298C924.059 312.874 923.087 313.162 921.923 313.162C920.975 313.162 920.123 312.952 919.367 312.532C918.623 312.1 918.035 311.5 917.603 310.732C917.183 309.952 916.973 309.052 916.973 308.032C916.973 307.012 917.177 306.118 917.585 305.35C918.005 304.57 918.587 303.97 919.331 303.55C920.087 303.13 920.951 302.92 921.923 302.92C922.859 302.92 923.693 303.124 924.425 303.532C925.157 303.94 925.727 304.516 926.135 305.26C926.543 305.992 926.747 306.838 926.747 307.798ZM924.605 307.15C924.593 306.394 924.323 305.788 923.795 305.332C923.267 304.876 922.613 304.648 921.833 304.648C921.125 304.648 920.519 304.876 920.015 305.332C919.511 305.776 919.211 306.382 919.115 307.15H924.605ZM928.082 308.032C928.082 307.012 928.286 306.118 928.694 305.35C929.114 304.57 929.69 303.97 930.422 303.55C931.154 303.13 931.994 302.92 932.942 302.92C934.142 302.92 935.132 303.208 935.912 303.784C936.704 304.348 937.238 305.158 937.514 306.214H935.3C935.12 305.722 934.832 305.338 934.436 305.062C934.04 304.786 933.542 304.648 932.942 304.648C932.102 304.648 931.43 304.948 930.926 305.548C930.434 306.136 930.188 306.964 930.188 308.032C930.188 309.1 930.434 309.934 930.926 310.534C931.43 311.134 932.102 311.434 932.942 311.434C934.13 311.434 934.916 310.912 935.3 309.868H937.514C937.226 310.876 936.686 311.68 935.894 312.28C935.102 312.868 934.118 313.162 932.942 313.162C931.994 313.162 931.154 312.952 930.422 312.532C929.69 312.1 929.114 311.5 928.694 310.732C928.286 309.952 928.082 309.052 928.082 308.032ZM940.603 301.768C940.231 301.768 939.919 301.642 939.667 301.39C939.415 301.138 939.289 300.826 939.289 300.454C939.289 300.082 939.415 299.77 939.667 299.518C939.919 299.266 940.231 299.14 940.603 299.14C940.963 299.14 941.269 299.266 941.521 299.518C941.773 299.77 941.899 300.082 941.899 300.454C941.899 300.826 941.773 301.138 941.521 301.39C941.269 301.642 940.963 301.768 940.603 301.768ZM941.611 303.082V313H939.559V303.082H941.611ZM946.357 304.54C946.705 304.084 947.179 303.7 947.779 303.388C948.379 303.076 949.057 302.92 949.813 302.92C950.677 302.92 951.463 303.136 952.171 303.568C952.891 303.988 953.455 304.582 953.863 305.35C954.271 306.118 954.475 307 954.475 307.996C954.475 308.992 954.271 309.886 953.863 310.678C953.455 311.458 952.891 312.07 952.171 312.514C951.463 312.946 950.677 313.162 949.813 313.162C949.057 313.162 948.385 313.012 947.797 312.712C947.209 312.4 946.729 312.016 946.357 311.56V317.716H944.305V303.082H946.357V304.54ZM952.387 307.996C952.387 307.312 952.243 306.724 951.955 306.232C951.679 305.728 951.307 305.35 950.839 305.098C950.383 304.834 949.891 304.702 949.363 304.702C948.847 304.702 948.355 304.834 947.887 305.098C947.431 305.362 947.059 305.746 946.771 306.25C946.495 306.754 946.357 307.348 946.357 308.032C946.357 308.716 946.495 309.316 946.771 309.832C947.059 310.336 947.431 310.72 947.887 310.984C948.355 311.248 948.847 311.38 949.363 311.38C949.891 311.38 950.383 311.248 950.839 310.984C951.307 310.708 951.679 310.312 951.955 309.796C952.243 309.28 952.387 308.68 952.387 307.996ZM957.549 301.768C957.177 301.768 956.865 301.642 956.613 301.39C956.361 301.138 956.235 300.826 956.235 300.454C956.235 300.082 956.361 299.77 956.613 299.518C956.865 299.266 957.177 299.14 957.549 299.14C957.909 299.14 958.215 299.266 958.467 299.518C958.719 299.77 958.845 300.082 958.845 300.454C958.845 300.826 958.719 301.138 958.467 301.39C958.215 301.642 957.909 301.768 957.549 301.768ZM958.557 303.082V313H956.505V303.082H958.557ZM970.341 307.798C970.341 308.17 970.317 308.506 970.269 308.806H962.691C962.751 309.598 963.045 310.234 963.573 310.714C964.101 311.194 964.749 311.434 965.517 311.434C966.621 311.434 967.401 310.972 967.857 310.048H970.071C969.771 310.96 969.225 311.71 968.433 312.298C967.653 312.874 966.681 313.162 965.517 313.162C964.569 313.162 963.717 312.952 962.961 312.532C962.217 312.1 961.629 311.5 961.197 310.732C960.777 309.952 960.567 309.052 960.567 308.032C960.567 307.012 960.771 306.118 961.179 305.35C961.599 304.57 962.181 303.97 962.925 303.55C963.681 303.13 964.545 302.92 965.517 302.92C966.453 302.92 967.287 303.124 968.019 303.532C968.751 303.94 969.321 304.516 969.729 305.26C970.137 305.992 970.341 306.838 970.341 307.798ZM968.199 307.15C968.187 306.394 967.917 305.788 967.389 305.332C966.861 304.876 966.207 304.648 965.427 304.648C964.719 304.648 964.113 304.876 963.609 305.332C963.105 305.776 962.805 306.382 962.709 307.15H968.199ZM977.364 302.92C978.144 302.92 978.84 303.082 979.452 303.406C980.076 303.73 980.562 304.21 980.91 304.846C981.258 305.482 981.432 306.25 981.432 307.15V313H979.398V307.456C979.398 306.568 979.176 305.89 978.732 305.422C978.288 304.942 977.682 304.702 976.914 304.702C976.146 304.702 975.534 304.942 975.078 305.422C974.634 305.89 974.412 306.568 974.412 307.456V313H972.36V303.082H974.412V304.216C974.748 303.808 975.174 303.49 975.69 303.262C976.218 303.034 976.776 302.92 977.364 302.92ZM986.443 304.756V310.246C986.443 310.618 986.527 310.888 986.695 311.056C986.875 311.212 987.175 311.29 987.595 311.29H988.855V313H987.235C986.311 313 985.603 312.784 985.111 312.352C984.619 311.92 984.373 311.218 984.373 310.246V304.756H983.203V303.082H984.373V300.616H986.443V303.082H988.855V304.756H986.443ZM997.474 304.522C997.774 304.018 998.17 303.628 998.662 303.352C999.166 303.064 999.76 302.92 1000.44 302.92V305.044H999.922C999.118 305.044 998.506 305.248 998.086 305.656C997.678 306.064 997.474 306.772 997.474 307.78V313H995.422V303.082H997.474V304.522ZM1011.42 307.798C1011.42 308.17 1011.4 308.506 1011.35 308.806H1003.77C1003.83 309.598 1004.12 310.234 1004.65 310.714C1005.18 311.194 1005.83 311.434 1006.6 311.434C1007.7 311.434 1008.48 310.972 1008.94 310.048H1011.15C1010.85 310.96 1010.3 311.71 1009.51 312.298C1008.73 312.874 1007.76 313.162 1006.6 313.162C1005.65 313.162 1004.8 312.952 1004.04 312.532C1003.3 312.1 1002.71 311.5 1002.28 310.732C1001.86 309.952 1001.65 309.052 1001.65 308.032C1001.65 307.012 1001.85 306.118 1002.26 305.35C1002.68 304.57 1003.26 303.97 1004 303.55C1004.76 303.13 1005.62 302.92 1006.6 302.92C1007.53 302.92 1008.37 303.124 1009.1 303.532C1009.83 303.94 1010.4 304.516 1010.81 305.26C1011.22 305.992 1011.42 306.838 1011.42 307.798ZM1009.28 307.15C1009.27 306.394 1009 305.788 1008.47 305.332C1007.94 304.876 1007.29 304.648 1006.51 304.648C1005.8 304.648 1005.19 304.876 1004.69 305.332C1004.18 305.776 1003.88 306.382 1003.79 307.15H1009.28ZM1012.76 308.032C1012.76 307.012 1012.96 306.118 1013.37 305.35C1013.79 304.57 1014.36 303.97 1015.1 303.55C1015.83 303.13 1016.67 302.92 1017.62 302.92C1018.82 302.92 1019.81 303.208 1020.59 303.784C1021.38 304.348 1021.91 305.158 1022.19 306.214H1019.97C1019.79 305.722 1019.51 305.338 1019.11 305.062C1018.71 304.786 1018.22 304.648 1017.62 304.648C1016.78 304.648 1016.1 304.948 1015.6 305.548C1015.11 306.136 1014.86 306.964 1014.86 308.032C1014.86 309.1 1015.11 309.934 1015.6 310.534C1016.1 311.134 1016.78 311.434 1017.62 311.434C1018.8 311.434 1019.59 310.912 1019.97 309.868H1022.19C1021.9 310.876 1021.36 311.68 1020.57 312.28C1019.78 312.868 1018.79 313.162 1017.62 313.162C1016.67 313.162 1015.83 312.952 1015.1 312.532C1014.36 312.1 1013.79 311.5 1013.37 310.732C1012.96 309.952 1012.76 309.052 1012.76 308.032ZM1033.32 307.798C1033.32 308.17 1033.3 308.506 1033.25 308.806H1025.67C1025.73 309.598 1026.03 310.234 1026.56 310.714C1027.08 311.194 1027.73 311.434 1028.5 311.434C1029.6 311.434 1030.38 310.972 1030.84 310.048H1033.05C1032.75 310.96 1032.21 311.71 1031.42 312.298C1030.64 312.874 1029.66 313.162 1028.5 313.162C1027.55 313.162 1026.7 312.952 1025.94 312.532C1025.2 312.1 1024.61 311.5 1024.18 310.732C1023.76 309.952 1023.55 309.052 1023.55 308.032C1023.55 307.012 1023.75 306.118 1024.16 305.35C1024.58 304.57 1025.16 303.97 1025.91 303.55C1026.66 303.13 1027.53 302.92 1028.5 302.92C1029.44 302.92 1030.27 303.124 1031 303.532C1031.73 303.94 1032.3 304.516 1032.71 305.26C1033.12 305.992 1033.32 306.838 1033.32 307.798ZM1031.18 307.15C1031.17 306.394 1030.9 305.788 1030.37 305.332C1029.84 304.876 1029.19 304.648 1028.41 304.648C1027.7 304.648 1027.1 304.876 1026.59 305.332C1026.09 305.776 1025.79 306.382 1025.69 307.15H1031.18ZM1036.39 301.768C1036.01 301.768 1035.7 301.642 1035.45 301.39C1035.2 301.138 1035.07 300.826 1035.07 300.454C1035.07 300.082 1035.2 299.77 1035.45 299.518C1035.7 299.266 1036.01 299.14 1036.39 299.14C1036.75 299.14 1037.05 299.266 1037.3 299.518C1037.56 299.77 1037.68 300.082 1037.68 300.454C1037.68 300.826 1037.56 301.138 1037.3 301.39C1037.05 301.642 1036.75 301.768 1036.39 301.768ZM1037.39 303.082V313H1035.34V303.082H1037.39ZM1043.92 311.164L1046.73 303.082H1048.91L1045.13 313H1042.68L1038.92 303.082H1041.11L1043.92 311.164ZM1059.55 307.798C1059.55 308.17 1059.53 308.506 1059.48 308.806H1051.9C1051.96 309.598 1052.25 310.234 1052.78 310.714C1053.31 311.194 1053.96 311.434 1054.73 311.434C1055.83 311.434 1056.61 310.972 1057.07 310.048H1059.28C1058.98 310.96 1058.43 311.71 1057.64 312.298C1056.86 312.874 1055.89 313.162 1054.73 313.162C1053.78 313.162 1052.93 312.952 1052.17 312.532C1051.43 312.1 1050.84 311.5 1050.41 310.732C1049.99 309.952 1049.78 309.052 1049.78 308.032C1049.78 307.012 1049.98 306.118 1050.39 305.35C1050.81 304.57 1051.39 303.97 1052.13 303.55C1052.89 303.13 1053.75 302.92 1054.73 302.92C1055.66 302.92 1056.5 303.124 1057.23 303.532C1057.96 303.94 1058.53 304.516 1058.94 305.26C1059.35 305.992 1059.55 306.838 1059.55 307.798ZM1057.41 307.15C1057.4 306.394 1057.13 305.788 1056.6 305.332C1056.07 304.876 1055.42 304.648 1054.64 304.648C1053.93 304.648 1053.32 304.876 1052.82 305.332C1052.31 305.776 1052.01 306.382 1051.92 307.15H1057.41ZM1065.17 313.162C1064.39 313.162 1063.69 313.024 1063.06 312.748C1062.45 312.46 1061.96 312.076 1061.6 311.596C1061.24 311.104 1061.05 310.558 1061.03 309.958H1063.15C1063.19 310.378 1063.39 310.732 1063.75 311.02C1064.12 311.296 1064.58 311.434 1065.13 311.434C1065.71 311.434 1066.15 311.326 1066.46 311.11C1066.79 310.882 1066.95 310.594 1066.95 310.246C1066.95 309.874 1066.77 309.598 1066.41 309.418C1066.06 309.238 1065.5 309.04 1064.74 308.824C1063.99 308.62 1063.39 308.422 1062.92 308.23C1062.45 308.038 1062.04 307.744 1061.69 307.348C1061.36 306.952 1061.19 306.43 1061.19 305.782C1061.19 305.254 1061.35 304.774 1061.66 304.342C1061.97 303.898 1062.41 303.55 1062.99 303.298C1063.58 303.046 1064.25 302.92 1065.01 302.92C1066.13 302.92 1067.04 303.208 1067.72 303.784C1068.42 304.348 1068.79 305.122 1068.84 306.106H1066.79C1066.75 305.662 1066.57 305.308 1066.25 305.044C1065.92 304.78 1065.49 304.648 1064.93 304.648C1064.39 304.648 1063.98 304.75 1063.69 304.954C1063.4 305.158 1063.26 305.428 1063.26 305.764C1063.26 306.028 1063.36 306.25 1063.55 306.43C1063.74 306.61 1063.97 306.754 1064.25 306.862C1064.53 306.958 1064.93 307.084 1065.47 307.24C1066.19 307.432 1066.78 307.63 1067.24 307.834C1067.71 308.026 1068.11 308.314 1068.44 308.698C1068.78 309.082 1068.95 309.592 1068.97 310.228C1068.97 310.792 1068.81 311.296 1068.5 311.74C1068.19 312.184 1067.74 312.532 1067.17 312.784C1066.6 313.036 1065.94 313.162 1065.17 313.162ZM952.746 326.756V332.246C952.746 332.618 952.83 332.888 952.998 333.056C953.178 333.212 953.478 333.29 953.898 333.29H955.158V335H953.538C952.614 335 951.906 334.784 951.414 334.352C950.922 333.92 950.676 333.218 950.676 332.246V326.756H949.506V325.082H950.676V322.616H952.746V325.082H955.158V326.756H952.746ZM962.179 324.92C962.935 324.92 963.607 325.082 964.195 325.406C964.795 325.73 965.263 326.21 965.599 326.846C965.947 327.482 966.121 328.25 966.121 329.15V335H964.087V329.456C964.087 328.568 963.865 327.89 963.421 327.422C962.977 326.942 962.371 326.702 961.603 326.702C960.835 326.702 960.223 326.942 959.767 327.422C959.323 327.89 959.101 328.568 959.101 329.456V335H957.049V321.68H959.101V326.234C959.449 325.814 959.887 325.49 960.415 325.262C960.955 325.034 961.543 324.92 962.179 324.92ZM977.829 329.798C977.829 330.17 977.805 330.506 977.757 330.806H970.179C970.239 331.598 970.533 332.234 971.061 332.714C971.589 333.194 972.237 333.434 973.005 333.434C974.109 333.434 974.889 332.972 975.345 332.048H977.559C977.259 332.96 976.713 333.71 975.921 334.298C975.141 334.874 974.169 335.162 973.005 335.162C972.057 335.162 971.205 334.952 970.449 334.532C969.705 334.1 969.117 333.5 968.685 332.732C968.265 331.952 968.055 331.052 968.055 330.032C968.055 329.012 968.259 328.118 968.667 327.35C969.087 326.57 969.669 325.97 970.413 325.55C971.169 325.13 972.033 324.92 973.005 324.92C973.941 324.92 974.775 325.124 975.507 325.532C976.239 325.94 976.809 326.516 977.217 327.26C977.625 327.992 977.829 328.838 977.829 329.798ZM975.687 329.15C975.675 328.394 975.405 327.788 974.877 327.332C974.349 326.876 973.695 326.648 972.915 326.648C972.207 326.648 971.601 326.876 971.097 327.332C970.593 327.776 970.293 328.382 970.197 329.15H975.687ZM980.892 323.768C980.52 323.768 980.208 323.642 979.956 323.39C979.704 323.138 979.578 322.826 979.578 322.454C979.578 322.082 979.704 321.77 979.956 321.518C980.208 321.266 980.52 321.14 980.892 321.14C981.252 321.14 981.558 321.266 981.81 321.518C982.062 321.77 982.188 322.082 982.188 322.454C982.188 322.826 982.062 323.138 981.81 323.39C981.558 323.642 981.252 323.768 980.892 323.768ZM981.9 325.082V335H979.848V325.082H981.9ZM986.646 326.522C986.946 326.018 987.342 325.628 987.834 325.352C988.338 325.064 988.932 324.92 989.616 324.92V327.044H989.094C988.29 327.044 987.678 327.248 987.258 327.656C986.85 328.064 986.646 328.772 986.646 329.78V335H984.594V325.082H986.646V326.522ZM1000.17 324.92C1000.94 324.92 1001.62 325.076 1002.21 325.388C1002.81 325.688 1003.28 326.066 1003.61 326.522V325.082H1005.68V335.162C1005.68 336.074 1005.49 336.884 1005.11 337.592C1004.72 338.312 1004.16 338.876 1003.43 339.284C1002.71 339.692 1001.85 339.896 1000.84 339.896C999.496 339.896 998.38 339.578 997.492 338.942C996.604 338.318 996.1 337.466 995.98 336.386H998.014C998.17 336.902 998.5 337.316 999.004 337.628C999.52 337.952 1000.13 338.114 1000.84 338.114C1001.67 338.114 1002.33 337.862 1002.84 337.358C1003.35 336.854 1003.61 336.122 1003.61 335.162V333.506C1003.26 333.974 1002.79 334.37 1002.19 334.694C1001.6 335.006 1000.93 335.162 1000.17 335.162C999.31 335.162 998.518 334.946 997.798 334.514C997.09 334.07 996.526 333.458 996.106 332.678C995.698 331.886 995.494 330.992 995.494 329.996C995.494 329 995.698 328.118 996.106 327.35C996.526 326.582 997.09 325.988 997.798 325.568C998.518 325.136 999.31 324.92 1000.17 324.92ZM1003.61 330.032C1003.61 329.348 1003.47 328.754 1003.18 328.25C1002.9 327.746 1002.54 327.362 1002.08 327.098C1001.63 326.834 1001.13 326.702 1000.61 326.702C1000.08 326.702 999.586 326.834 999.13 327.098C998.674 327.35 998.302 327.728 998.014 328.232C997.738 328.724 997.6 329.312 997.6 329.996C997.6 330.68 997.738 331.28 998.014 331.796C998.302 332.312 998.674 332.708 999.13 332.984C999.598 333.248 1000.09 333.38 1000.61 333.38C1001.13 333.38 1001.63 333.248 1002.08 332.984C1002.54 332.72 1002.9 332.336 1003.18 331.832C1003.47 331.316 1003.61 330.716 1003.61 330.032ZM1009.42 323.768C1009.05 323.768 1008.74 323.642 1008.49 323.39C1008.23 323.138 1008.11 322.826 1008.11 322.454C1008.11 322.082 1008.23 321.77 1008.49 321.518C1008.74 321.266 1009.05 321.14 1009.42 321.14C1009.78 321.14 1010.09 321.266 1010.34 321.518C1010.59 321.77 1010.72 322.082 1010.72 322.454C1010.72 322.826 1010.59 323.138 1010.34 323.39C1010.09 323.642 1009.78 323.768 1009.42 323.768ZM1010.43 325.082V335H1008.38V325.082H1010.43ZM1017.28 326.756H1015.45V335H1013.38V326.756H1012.21V325.082H1013.38V324.38C1013.38 323.24 1013.68 322.412 1014.28 321.896C1014.89 321.368 1015.84 321.104 1017.14 321.104V322.814C1016.51 322.814 1016.08 322.934 1015.82 323.174C1015.57 323.402 1015.45 323.804 1015.45 324.38V325.082H1017.28V326.756ZM1021.49 326.756V332.246C1021.49 332.618 1021.58 332.888 1021.75 333.056C1021.93 333.212 1022.23 333.29 1022.65 333.29H1023.91V335H1022.29C1021.36 335 1020.65 334.784 1020.16 334.352C1019.67 333.92 1019.42 333.218 1019.42 332.246V326.756H1018.25V325.082H1019.42V322.616H1021.49V325.082H1023.91V326.756H1021.49ZM1028.37 322.49L1028.14 331.22H1026.43L1026.19 322.49H1028.37ZM1027.35 335.126C1026.97 335.126 1026.66 335 1026.41 334.748C1026.16 334.496 1026.03 334.184 1026.03 333.812C1026.03 333.44 1026.16 333.128 1026.41 332.876C1026.66 332.624 1026.97 332.498 1027.35 332.498C1027.71 332.498 1028.01 332.624 1028.26 332.876C1028.52 333.128 1028.64 333.44 1028.64 333.812C1028.64 334.184 1028.52 334.496 1028.26 334.748C1028.01 335 1027.71 335.126 1027.35 335.126Z" fill="#011638"/>
<rect y="227" width="128" height="128" rx="64" transform="rotate(-90 0 227)" fill="#8994D2"/>
<path d="M64.2352 173.378H53.6899V162.833L85.3256 131.197L95.8709 141.742L64.2352 173.378Z" stroke="#FCFAF7" stroke-width="4" stroke-linecap="round" stroke-linejoin="round"/>
<path d="M76.0986 140.425L86.6439 150.97" stroke="#FCFAF7" stroke-width="4" stroke-linecap="round" stroke-linejoin="round"/>
<path d="M93.2346 163.021V189.196C93.2346 189.896 92.9569 190.566 92.4625 191.061C91.9681 191.555 91.2975 191.833 90.5983 191.833H37.8721C37.173 191.833 36.5024 191.555 36.008 191.061C35.5136 190.566 35.2358 189.896 35.2358 189.196V136.47C35.2358 135.771 35.5136 135.101 36.008 134.606C36.5024 134.112 37.173 133.834 37.8721 133.834H64.0479" stroke="#FCFAF7" stroke-width="4" stroke-linecap="round" stroke-linejoin="round"/>
<rect x="224" y="227" width="128" height="128" rx="64" transform="rotate(-90 224 227)" fill="#8994D2"/>
<path d="M287.594 131.197V141.742" stroke="#FCFAF7" stroke-width="4" stroke-linecap="round" stroke-linejoin="round"/>
<path d="M319.23 162.833H308.685" stroke="#FCFAF7" stroke-width="4" stroke-linecap="round" stroke-linejoin="round"/>
<path d="M309.964 185.203L302.507 177.746" stroke="#FCFAF7" stroke-width="4" stroke-linecap="round" stroke-linejoin="round"/>
<path d="M287.594 194.468V183.923" stroke="#FCFAF7" stroke-width="4" stroke-linecap="round" stroke-linejoin="round"/>
<path d="M265.224 185.203L272.681 177.746" stroke="#FCFAF7" stroke-width="4" stroke-linecap="round" stroke-linejoin="round"/>
<path d="M255.958 162.833H266.504" stroke="#FCFAF7" stroke-width="4" stroke-linecap="round" stroke-linejoin="round"/>
<path d="M265.224 140.463L272.681 147.919" stroke="#FCFAF7" stroke-width="4" stroke-linecap="round" stroke-linejoin="round"/>
<rect x="448" y="227" width="128" height="128" rx="64" transform="rotate(-90 448 227)" fill="#8994D2"/>
<path d="M481 167.035C478.052 162.065 477.02 156.191 478.097 150.514C479.174 144.837 482.286 139.749 486.85 136.204C491.413 132.66 497.113 130.903 502.88 131.264C508.646 131.625 514.083 134.079 518.169 138.164C522.254 142.25 524.708 147.687 525.069 153.453C525.43 159.22 523.673 164.92 520.129 169.483C516.584 174.046 511.496 177.159 505.819 178.236C500.142 179.313 494.268 178.28 489.298 175.333L489.298 175.332L481.104 177.674C480.764 177.771 480.406 177.775 480.064 177.687C479.723 177.598 479.412 177.42 479.162 177.171C478.913 176.921 478.735 176.61 478.646 176.269C478.558 175.927 478.562 175.568 478.659 175.229L481.001 167.035L481 167.035Z" stroke="#FCFAF7" stroke-width="4" stroke-linecap="round" stroke-linejoin="round"/>
<path d="M500.109 178.615C501.276 181.926 503.162 184.938 505.632 187.432C508.102 189.927 511.095 191.842 514.395 193.041C517.694 194.24 521.219 194.692 524.714 194.365C528.209 194.038 531.589 192.94 534.609 191.15L534.608 191.149L542.803 193.491C543.142 193.588 543.501 193.592 543.842 193.504C544.184 193.415 544.495 193.237 544.745 192.988C544.994 192.738 545.172 192.427 545.26 192.086C545.349 191.744 545.344 191.385 545.248 191.046L542.906 182.852L542.906 182.852C544.987 179.343 546.128 175.358 546.219 171.28C546.311 167.202 545.35 163.17 543.429 159.571C541.509 155.973 538.693 152.93 535.254 150.737C531.815 148.544 527.869 147.274 523.796 147.05" stroke="#FCFAF7" stroke-width="4" stroke-linecap="round" stroke-linejoin="round"/>
<rect x="672" y="227" width="128" height="128" rx="64" transform="rotate(-90 672 227)" fill="#8994D2"/>
<path d="M767.815 139.454H704.545C703.089 139.454 701.909 140.634 701.909 142.09V184.27C701.909 185.726 703.089 186.907 704.545 186.907H767.815C769.271 186.907 770.451 185.726 770.451 184.27V142.09C770.451 140.634 769.271 139.454 767.815 139.454Z" stroke="#FCFAF7" stroke-width="4" stroke-linecap="round" stroke-linejoin="round"/>
<path d="M749.359 176.361H759.904" stroke="#FCFAF7" stroke-width="4" stroke-linecap="round" stroke-linejoin="round"/>
<path d="M733.542 176.361H738.814" stroke="#FCFAF7" stroke-width="4" stroke-linecap="round" stroke-linejoin="round"/>
<path d="M701.907 152.916H770.449" stroke="#FCFAF7" stroke-width="4" stroke-linecap="round" stroke-linejoin="round"/>
<defs>
<filter id="filter0_d" x="902.457" y="77.1914" width="173.848" height="37.0123" filterUnits="userSpaceOnUse" color-interpolation-filters="sRGB">
<feFlood flood-opacity="0" result="BackgroundImageFix"/>
<feColorMatrix in="SourceAlpha" type="matrix" values="0 0 0 0 0 0 0 0 0 0 0 0 0 0 0 0 0 0 127 0"/>
<feOffset dy="4"/>
<feColorMatrix type="matrix" values="0 0 0 0 0.679167 0 0 0 0 0.398198 0 0 0 0 0.246198 0 0 0 0.72 0"/>
<feBlend mode="normal" in2="BackgroundImageFix" result="effect1_dropShadow"/>
<feBlend mode="normal" in="SourceGraphic" in2="effect1_dropShadow" result="shape"/>
</filter>
</defs>
</svg>
