<svg width="238" height="53" viewBox="0 0 238 53" fill="none" xmlns="http://www.w3.org/2000/svg">
<rect x="1.43024" y="51.8057" width="35.3073" height="37.1844" transform="rotate(-90 1.43024 51.8057)" fill="#8994D2"/>
<rect x="1.36469" y="51.7793" width="35.3066" height="37.2712" transform="rotate(-90 1.36469 51.7793)" fill="#C88B6A"/>
<g filter="url(#filter0_d)">
<rect x="38.5678" y="23.5732" width="37.1867" height="7.06145" transform="rotate(-180 38.5678 23.5732)" fill="#C88B6A"/>
</g>
<rect x="40.0001" y="23.5732" width="40" height="7.06145" transform="rotate(-180 40.0001 23.5732)" fill="#C88B6A"/>
<path fill-rule="evenodd" clip-rule="evenodd" d="M18.7887 10.3046C17.9747 6.7168 17.7803 5.85961 16.3327 4.25614C14.2107 1.90547 10.5848 1.72015 8.23412 3.84222C5.88344 5.96429 5.69812 9.59017 7.8202 11.9408C9.31524 13.5969 10.0941 13.859 13.8851 15.1342C15.4751 15.6691 17.5949 16.3822 20.5195 17.4511C19.6817 14.2414 19.1679 11.9765 18.7887 10.3046ZM10.1104 10.2285C11.1715 11.4038 12.9844 11.4965 14.1597 10.4354C15.3351 9.37441 15.4277 7.56147 14.3667 6.38613C13.3057 5.21079 11.4927 5.11813 10.3174 6.17917C9.14205 7.24021 9.04939 9.05315 10.1104 10.2285Z" fill="#8994D2"/>
<rect x="16.8939" y="51.8057" width="35.3073" height="6.25698" transform="rotate(-90 16.8939 51.8057)" fill="#011638"/>
<path d="M22.1696 9.77104C23.9716 7.26365 29.2678 6.58858 29.2678 6.58858C29.2678 6.58858 30.6835 10.4749 28.1541 13.4744C25.6248 16.4739 19.9577 16.9516 19.9577 16.9516C19.9577 16.9516 20.3677 12.2784 22.1696 9.77104Z" fill="#011638"/>
<path d="M60.616 44V43.72L61.204 43.496C61.596 43.3467 61.8387 43.1693 61.932 42.964C62.044 42.74 62.1 42.4413 62.1 42.068V27.452C62.1 27.0787 62.044 26.78 61.932 26.556C61.82 26.332 61.5773 26.1547 61.204 26.024L60.616 25.8V25.52H67.756V25.8L67.252 26.024C66.8973 26.1547 66.6547 26.3413 66.524 26.584C66.3933 26.808 66.328 27.1067 66.328 27.48V43.44H70.64C71.3307 43.44 71.8347 43.272 72.152 42.936C72.488 42.6 72.8053 42.1147 73.104 41.48L74.196 39.128H74.476L74.224 44H60.616ZM82.7651 44.42C81.3464 44.42 80.1144 44.1307 79.0691 43.552C78.0238 42.9547 77.2118 42.1147 76.6331 41.032C76.0731 39.9493 75.7931 38.68 75.7931 37.224C75.7931 35.768 76.0918 34.508 76.6891 33.444C77.3051 32.38 78.1358 31.5587 79.1811 30.98C80.2451 30.4013 81.4398 30.112 82.7651 30.112C84.0904 30.112 85.2758 30.4013 86.3211 30.98C87.3664 31.54 88.1878 32.352 88.7851 33.416C89.4011 34.48 89.7091 35.7493 89.7091 37.224C89.7091 38.6987 89.4198 39.9773 88.8411 41.06C88.2811 42.124 87.4784 42.9547 86.4331 43.552C85.4064 44.1307 84.1838 44.42 82.7651 44.42ZM82.7651 43.86C83.4184 43.86 83.9411 43.6733 84.3331 43.3C84.7251 42.9267 85.0051 42.264 85.1731 41.312C85.3598 40.36 85.4531 39.016 85.4531 37.28C85.4531 35.5253 85.3598 34.172 85.1731 33.22C85.0051 32.268 84.7251 31.6053 84.3331 31.232C83.9411 30.8587 83.4184 30.672 82.7651 30.672C82.1118 30.672 81.5798 30.8587 81.1691 31.232C80.7771 31.6053 80.4878 32.268 80.3011 33.22C80.1331 34.172 80.0491 35.5253 80.0491 37.28C80.0491 39.016 80.1331 40.36 80.3011 41.312C80.4878 42.264 80.7771 42.9267 81.1691 43.3C81.5798 43.6733 82.1118 43.86 82.7651 43.86ZM98.047 44.42C96.7776 44.42 95.6203 44.1493 94.575 43.608C93.5483 43.048 92.727 42.2453 92.111 41.2C91.5136 40.136 91.215 38.8387 91.215 37.308C91.215 35.796 91.5416 34.508 92.195 33.444C92.867 32.3613 93.7536 31.54 94.855 30.98C95.975 30.4013 97.1976 30.112 98.523 30.112C99.6056 30.112 100.52 30.2893 101.267 30.644C102.014 30.9987 102.583 31.4653 102.975 32.044C103.367 32.604 103.563 33.192 103.563 33.808C103.563 34.3307 103.404 34.7413 103.087 35.04C102.77 35.32 102.359 35.46 101.855 35.46C101.314 35.46 100.875 35.264 100.539 34.872C100.203 34.48 100.007 33.9667 99.951 33.332C99.9323 32.9213 99.9416 32.576 99.979 32.296C100.016 31.9973 100.016 31.6987 99.979 31.4C99.9043 31.0827 99.783 30.8773 99.615 30.784C99.4656 30.672 99.251 30.616 98.971 30.616C97.8323 30.616 96.9456 31.1107 96.311 32.1C95.695 33.0893 95.387 34.6667 95.387 36.832C95.387 38.7173 95.7323 40.164 96.423 41.172C97.1323 42.1613 98.215 42.656 99.671 42.656C100.548 42.656 101.258 42.4973 101.799 42.18C102.34 41.8627 102.863 41.3867 103.367 40.752L103.647 40.976C103.18 42.0773 102.462 42.9267 101.491 43.524C100.52 44.1213 99.3723 44.42 98.047 44.42ZM108.863 44.42C107.78 44.42 106.866 44.112 106.119 43.496C105.391 42.88 105.027 41.9933 105.027 40.836C105.027 39.9587 105.475 39.156 106.371 38.428C107.267 37.6813 108.676 37.1213 110.599 36.748C110.898 36.692 111.234 36.636 111.607 36.58C111.98 36.5053 112.372 36.4307 112.783 36.356V34.144C112.783 32.8747 112.624 31.988 112.307 31.484C112.008 30.9613 111.532 30.7 110.879 30.7C110.431 30.7 110.076 30.8493 109.815 31.148C109.554 31.428 109.386 31.9227 109.311 32.632L109.255 32.94C109.218 33.7427 109.022 34.3307 108.667 34.704C108.312 35.0773 107.874 35.264 107.351 35.264C106.866 35.264 106.464 35.1147 106.147 34.816C105.83 34.5173 105.671 34.116 105.671 33.612C105.671 32.8467 105.932 32.2027 106.455 31.68C106.996 31.1573 107.706 30.7653 108.583 30.504C109.46 30.2427 110.412 30.112 111.439 30.112C113.1 30.112 114.379 30.5227 115.275 31.344C116.19 32.1467 116.647 33.4627 116.647 35.292V41.48C116.647 42.32 117.039 42.74 117.823 42.74H118.439L118.691 42.964C118.336 43.412 117.944 43.7573 117.515 44C117.104 44.2427 116.516 44.364 115.751 44.364C114.93 44.364 114.276 44.1773 113.791 43.804C113.324 43.412 113.016 42.8987 112.867 42.264C112.307 42.8613 111.728 43.3747 111.131 43.804C110.552 44.2147 109.796 44.42 108.863 44.42ZM110.571 42.712C110.944 42.712 111.29 42.628 111.607 42.46C111.943 42.2733 112.335 41.9933 112.783 41.62V36.916C112.596 36.9533 112.41 36.9907 112.223 37.028C112.036 37.0653 111.822 37.1027 111.579 37.14C110.72 37.364 110.03 37.7467 109.507 38.288C109.003 38.8107 108.751 39.52 108.751 40.416C108.751 41.1813 108.928 41.76 109.283 42.152C109.638 42.5253 110.067 42.712 110.571 42.712ZM119.351 44V43.72L119.687 43.608C120.359 43.384 120.695 42.9173 120.695 42.208V27.228C120.695 26.8547 120.62 26.5747 120.471 26.388C120.322 26.1827 120.06 26.0333 119.687 25.94L119.323 25.856V25.576L124.447 24.372L124.783 24.624L124.671 28.544V38.12C124.671 38.8107 124.671 39.5013 124.671 40.192C124.69 40.864 124.699 41.536 124.699 42.208C124.699 42.5813 124.774 42.8893 124.923 43.132C125.072 43.356 125.324 43.524 125.679 43.636L126.043 43.72V44H119.351ZM139.452 44.504C138.426 44.504 137.38 44.3733 136.316 44.112C135.252 43.8693 134.366 43.5427 133.656 43.132L133.796 39.324H134.076L134.944 41.144C135.206 41.6667 135.486 42.1333 135.784 42.544C136.083 42.936 136.494 43.244 137.016 43.468C137.39 43.6547 137.744 43.7853 138.08 43.86C138.435 43.916 138.827 43.944 139.256 43.944C140.395 43.944 141.291 43.636 141.944 43.02C142.616 42.404 142.952 41.6107 142.952 40.64C142.952 39.7253 142.728 39.016 142.28 38.512C141.832 37.9893 141.114 37.4853 140.124 37L138.976 36.496C137.371 35.7867 136.111 34.9747 135.196 34.06C134.3 33.1267 133.852 31.8947 133.852 30.364C133.852 29.2627 134.132 28.3107 134.692 27.508C135.271 26.7053 136.064 26.0893 137.072 25.66C138.099 25.2307 139.294 25.016 140.656 25.016C141.646 25.016 142.579 25.1467 143.456 25.408C144.352 25.6693 145.127 26.024 145.78 26.472L145.612 29.832H145.332L144.184 27.732C143.867 27.0787 143.55 26.6213 143.232 26.36C142.915 26.08 142.551 25.884 142.14 25.772C141.898 25.6973 141.674 25.6507 141.468 25.632C141.263 25.5947 141.002 25.576 140.684 25.576C139.732 25.576 138.93 25.856 138.276 26.416C137.623 26.9573 137.296 27.6947 137.296 28.628C137.296 29.58 137.548 30.3453 138.052 30.924C138.556 31.484 139.294 31.988 140.264 32.436L141.552 32.996C143.344 33.78 144.632 34.62 145.416 35.516C146.2 36.3933 146.592 37.532 146.592 38.932C146.592 40.5747 145.967 41.9187 144.716 42.964C143.484 43.9907 141.73 44.504 139.452 44.504ZM147.953 44V43.72L148.289 43.608C148.961 43.384 149.297 42.9173 149.297 42.208V27.256C149.297 26.864 149.231 26.5747 149.101 26.388C148.97 26.2013 148.718 26.0613 148.345 25.968L147.925 25.856V25.576L152.853 24.372L153.301 24.624L153.189 28.572V32.072C153.842 31.5307 154.542 31.0733 155.289 30.7C156.054 30.308 156.894 30.112 157.809 30.112C159.022 30.112 159.983 30.4573 160.693 31.148C161.421 31.8387 161.785 32.9027 161.785 34.34V42.236C161.785 42.6093 161.859 42.908 162.009 43.132C162.158 43.356 162.419 43.524 162.793 43.636L163.017 43.72V44H156.465V43.72L156.801 43.636C157.473 43.412 157.809 42.936 157.809 42.208V33.416C157.809 32.6693 157.678 32.156 157.417 31.876C157.174 31.596 156.735 31.456 156.101 31.456C155.69 31.456 155.242 31.54 154.757 31.708C154.271 31.8573 153.777 32.128 153.273 32.52V42.264C153.273 42.992 153.609 43.4587 154.281 43.664L154.505 43.72V44H147.953ZM171.195 44.42C169.776 44.42 168.544 44.1307 167.499 43.552C166.453 42.9547 165.641 42.1147 165.063 41.032C164.503 39.9493 164.223 38.68 164.223 37.224C164.223 35.768 164.521 34.508 165.119 33.444C165.735 32.38 166.565 31.5587 167.611 30.98C168.675 30.4013 169.869 30.112 171.195 30.112C172.52 30.112 173.705 30.4013 174.751 30.98C175.796 31.54 176.617 32.352 177.215 33.416C177.831 34.48 178.139 35.7493 178.139 37.224C178.139 38.6987 177.849 39.9773 177.271 41.06C176.711 42.124 175.908 42.9547 174.863 43.552C173.836 44.1307 172.613 44.42 171.195 44.42ZM171.195 43.86C171.848 43.86 172.371 43.6733 172.763 43.3C173.155 42.9267 173.435 42.264 173.603 41.312C173.789 40.36 173.883 39.016 173.883 37.28C173.883 35.5253 173.789 34.172 173.603 33.22C173.435 32.268 173.155 31.6053 172.763 31.232C172.371 30.8587 171.848 30.672 171.195 30.672C170.541 30.672 170.009 30.8587 169.599 31.232C169.207 31.6053 168.917 32.268 168.731 33.22C168.563 34.172 168.479 35.5253 168.479 37.28C168.479 39.016 168.563 40.36 168.731 41.312C168.917 42.264 169.207 42.9267 169.599 43.3C170.009 43.6733 170.541 43.86 171.195 43.86ZM179.095 50.44V50.16L179.431 50.048C180.122 49.8613 180.467 49.4133 180.467 48.704V33.472C180.467 33.0613 180.392 32.7533 180.243 32.548C180.112 32.3427 179.86 32.2027 179.487 32.128L179.095 32.044V31.764L183.855 30.14L184.135 30.42L184.387 31.288C185.003 30.9147 185.684 30.6253 186.431 30.42C187.196 30.2147 187.98 30.112 188.783 30.112C190.388 30.112 191.658 30.728 192.591 31.96C193.543 33.1733 194.019 34.9187 194.019 37.196C194.019 39.436 193.496 41.2 192.451 42.488C191.424 43.776 189.968 44.42 188.083 44.42C186.608 44.42 185.367 44.2053 184.359 43.776V48.62C184.359 49.3667 184.695 49.8333 185.367 50.02L185.899 50.16V50.44H179.095ZM186.739 43.608C187.672 43.608 188.41 43.1227 188.951 42.152C189.511 41.1813 189.791 39.5667 189.791 37.308C189.791 35.0493 189.53 33.472 189.007 32.576C188.484 31.6613 187.728 31.204 186.739 31.204C186.048 31.204 185.283 31.428 184.443 31.876V43.16C185.152 43.4587 185.918 43.608 186.739 43.608ZM195.009 50.44V50.16L195.345 50.048C196.036 49.8613 196.381 49.4133 196.381 48.704V33.472C196.381 33.0613 196.307 32.7533 196.157 32.548C196.027 32.3427 195.775 32.2027 195.401 32.128L195.009 32.044V31.764L199.769 30.14L200.049 30.42L200.301 31.288C200.917 30.9147 201.599 30.6253 202.345 30.42C203.111 30.2147 203.895 30.112 204.697 30.112C206.303 30.112 207.572 30.728 208.505 31.96C209.457 33.1733 209.933 34.9187 209.933 37.196C209.933 39.436 209.411 41.2 208.365 42.488C207.339 43.776 205.883 44.42 203.997 44.42C202.523 44.42 201.281 44.2053 200.273 43.776V48.62C200.273 49.3667 200.609 49.8333 201.281 50.02L201.813 50.16V50.44H195.009ZM202.653 43.608C203.587 43.608 204.324 43.1227 204.865 42.152C205.425 41.1813 205.705 39.5667 205.705 37.308C205.705 35.0493 205.444 33.472 204.921 32.576C204.399 31.6613 203.643 31.204 202.653 31.204C201.963 31.204 201.197 31.428 200.357 31.876V43.16C201.067 43.4587 201.832 43.608 202.653 43.608ZM218.389 30.112C219.602 30.112 220.638 30.364 221.497 30.868C222.355 31.3533 223.009 32.0253 223.457 32.884C223.923 33.724 224.157 34.6853 224.157 35.768C224.157 35.9733 224.147 36.188 224.129 36.412C224.11 36.6173 224.073 36.804 224.017 36.972H215.673C215.691 38.988 216.046 40.444 216.737 41.34C217.446 42.2173 218.491 42.656 219.873 42.656C220.806 42.656 221.562 42.5067 222.141 42.208C222.719 41.9093 223.261 41.4707 223.765 40.892L224.045 41.144C223.466 42.1707 222.691 42.9733 221.721 43.552C220.769 44.1307 219.621 44.42 218.277 44.42C216.951 44.42 215.775 44.14 214.749 43.58C213.722 43.0013 212.919 42.18 212.341 41.116C211.762 40.052 211.473 38.7827 211.473 37.308C211.473 35.7773 211.809 34.48 212.481 33.416C213.153 32.3333 214.011 31.512 215.057 30.952C216.121 30.392 217.231 30.112 218.389 30.112ZM218.305 30.672C217.763 30.672 217.297 30.84 216.905 31.176C216.531 31.4933 216.233 32.072 216.009 32.912C215.803 33.7333 215.691 34.9 215.673 36.412H220.461C220.647 34.3773 220.573 32.912 220.237 32.016C219.901 31.12 219.257 30.672 218.305 30.672ZM225.552 44V43.72L225.972 43.608C226.346 43.496 226.598 43.328 226.728 43.104C226.878 42.88 226.952 42.5907 226.952 42.236V33.472C226.952 33.0613 226.878 32.7627 226.728 32.576C226.598 32.3707 226.346 32.2307 225.972 32.156L225.552 32.044V31.764L230.368 30.14L230.648 30.42L230.9 32.828V33.052C231.162 32.5293 231.498 32.0533 231.908 31.624C232.338 31.176 232.804 30.812 233.308 30.532C233.831 30.252 234.344 30.112 234.848 30.112C235.558 30.112 236.099 30.308 236.472 30.7C236.846 31.092 237.032 31.5867 237.032 32.184C237.032 32.8187 236.846 33.3133 236.472 33.668C236.118 34.004 235.688 34.172 235.184 34.172C234.4 34.172 233.71 33.78 233.112 32.996L233.056 32.94C232.87 32.6787 232.655 32.5387 232.412 32.52C232.17 32.4827 231.946 32.5947 231.74 32.856C231.554 33.024 231.395 33.2293 231.264 33.472C231.152 33.696 231.04 33.9573 230.928 34.256V42.068C230.928 42.8147 231.255 43.2813 231.908 43.468L232.804 43.72V44H225.552Z" fill="#011638"/>
<defs>
<filter id="filter0_d" x="1.3811" y="16.5117" width="37.1867" height="8.06145" filterUnits="userSpaceOnUse" color-interpolation-filters="sRGB">
<feFlood flood-opacity="0" result="BackgroundImageFix"/>
<feColorMatrix in="SourceAlpha" type="matrix" values="0 0 0 0 0 0 0 0 0 0 0 0 0 0 0 0 0 0 127 0"/>
<feOffset dy="1"/>
<feColorMatrix type="matrix" values="0 0 0 0 0.679167 0 0 0 0 0.398198 0 0 0 0 0.246198 0 0 0 0.72 0"/>
<feBlend mode="normal" in2="BackgroundImageFix" result="effect1_dropShadow"/>
<feBlend mode="normal" in="SourceGraphic" in2="effect1_dropShadow" result="shape"/>
</filter>
</defs>
</svg>
