<svg width="37" height="32" viewBox="0 0 31 25" fill="none" xmlns="http://www.w3.org/2000/svg">
<path fill-rule="evenodd" clip-rule="evenodd" d="M24.7755 1.17676C24.7755 0.624473 24.3278 0.176758 23.7755 0.176758C23.2232 0.176758 22.7755 0.624473 22.7755 1.17676V6.05073H17.9015C17.3492 6.05073 16.9015 6.49845 16.9015 7.05073C16.9015 7.60302 17.3492 8.05073 17.9015 8.05073H22.7755V12.9246C22.7755 13.4769 23.2232 13.9246 23.7755 13.9246C24.3278 13.9246 24.7755 13.4769 24.7755 12.9246V8.05073H29.6493C30.2016 8.05073 30.6493 7.60302 30.6493 7.05073C30.6493 6.49845 30.2016 6.05073 29.6493 6.05073H24.7755V1.17676ZM21.7754 9.04949H17.9014C17.5082 9.04949 17.1415 8.93601 16.8323 8.74002H13.2287C15.7112 5.03554 16.4018 4.86606 17.3871 4.86606C17.6811 4.86606 17.9597 4.93182 18.2091 5.04949H21.2602C20.5918 3.57234 19.1066 2.54168 17.3871 2.54168C15.3779 2.54168 14.0787 3.57312 12.4125 5.84907C10.7462 3.57312 9.44699 2.54168 7.43782 2.54168C5.09539 2.54168 3.18764 4.45445 3.18764 6.80304C3.18764 7.50519 3.37117 8.15408 3.67544 8.74002H1.54552C0.690654 8.74002 0 9.43249 0 10.2896V14.1636C0 14.5897 0.347742 14.9384 0.77276 14.9384H23.9556C24.0823 14.9384 24.2021 14.9074 24.3079 14.8526C24.1383 14.8993 23.9598 14.9243 23.7754 14.9243C22.6708 14.9243 21.7754 14.0288 21.7754 12.9243V9.04949ZM1.54552 22.6863C1.54552 23.5434 2.23617 24.2359 3.09104 24.2359H10.8186V16.4879H1.54552V22.6863ZM13.9097 24.2359H21.6373C22.4921 24.2359 23.1828 23.5434 23.1828 22.6863V16.4879H13.9097V24.2359ZM7.43299 8.74002C6.36561 8.74002 5.50109 7.87322 5.50109 6.80304C5.50109 5.73285 6.36561 4.86606 7.43299 4.86606C8.39411 4.86606 9.10408 5.02586 11.5914 8.74002H7.43299Z" fill="#011638"/>
</svg>
