<svg width="42" height="36" viewBox="0 0 34 27" fill="none" xmlns="http://www.w3.org/2000/svg">
<path fill-rule="evenodd" clip-rule="evenodd" d="M24.75 2C24.75 1.30964 24.1904 0.75 23.5 0.75C22.8096 0.75 22.25 1.30964 22.25 2V9.25H15C14.3096 9.25 13.75 9.80964 13.75 10.5C13.75 11.1904 14.3096 11.75 15 11.75H22.25V19C22.25 19.6904 22.8096 20.25 23.5 20.25C24.1904 20.25 24.75 19.6904 24.75 19V11.75H32C32.6904 11.75 33.25 11.1904 33.25 10.5C33.25 9.80964 32.6904 9.25 32 9.25H24.75V2ZM20.5 5.72898C19.7232 4.8907 18.6149 4.36523 17.3871 4.36523C15.3779 4.36523 14.0787 5.39668 12.4125 7.67263C10.7462 5.39668 9.44699 4.36523 7.43782 4.36523C5.09539 4.36523 3.18764 6.278 3.18764 8.62659C3.18764 9.32874 3.37117 9.97763 3.67544 10.5636H1.54552C0.690654 10.5636 0 11.256 0 12.1132V15.9871C0 16.4132 0.347742 16.7619 0.77276 16.7619H20.5V13.4989H15C13.3431 13.4989 12 12.1557 12 10.4989C12 8.84204 13.3431 7.49889 15 7.49889H15.5817C16.3509 6.74571 16.8202 6.68961 17.3871 6.68961C18.0348 6.68961 18.6078 7.00878 18.9583 7.49889H20.5V5.72898ZM20.5 18.3115H13.9097V26.0594H21.6373C22.4921 26.0594 23.1828 25.3669 23.1828 24.5098V21.9834C21.6751 21.825 20.5 20.5497 20.5 19V18.3115ZM1.54552 24.5098C1.54552 25.3669 2.23617 26.0594 3.09104 26.0594H10.8186V18.3115H1.54552V24.5098ZM7.43299 10.5636C6.36561 10.5636 5.50109 9.69677 5.50109 8.62659C5.50109 7.55641 6.36561 6.68961 7.43299 6.68961C8.39411 6.68961 9.10408 6.84941 11.5914 10.5636H7.43299Z" fill="#011638"/>
</svg>
